<svg width="584" height="136" viewBox="0 0 584 136" fill="none" xmlns="http://www.w3.org/2000/svg">
<path d="M40.0898 102.582C43.2799 117.621 47.9023 125.141 53.957 125.141C56.3008 125.141 58.5469 124.294 60.6953 122.602C62.8438 120.844 64.8294 118.728 66.6523 116.254C68.5404 113.715 70.2005 111.046 71.6328 108.246C73.0651 105.447 74.237 103.005 75.1484 100.922C75.7995 99.3594 76.9388 98.5781 78.5664 98.5781C79.6081 98.5781 80.487 98.9688 81.2031 99.75C81.9193 100.531 82.2773 101.378 82.2773 102.289C82.2773 102.81 82.1797 103.266 81.9844 103.656C81.5286 104.763 80.8451 106.26 79.9336 108.148C79.0872 109.971 78.013 111.957 76.7109 114.105C75.474 116.189 74.0742 118.337 72.5117 120.551C70.9492 122.764 69.224 124.75 67.3359 126.508C65.4479 128.266 63.4297 129.73 61.2812 130.902C59.1979 132.009 56.9844 132.562 54.6406 132.562C50.2786 132.562 46.5352 131.065 43.4102 128.07C40.2852 125.01 37.5833 119.997 35.3047 113.031C32.1797 119.672 29.0221 124.49 25.832 127.484C22.6419 130.479 19.1914 131.977 15.4805 131.977C13.5273 131.977 11.6393 131.651 9.81641 131C7.99349 130.414 6.39844 129.405 5.03125 127.973C3.66406 126.54 2.55729 124.717 1.71094 122.504C0.864583 120.225 0.441406 117.458 0.441406 114.203C0.441406 109.711 1.22266 105.577 2.78516 101.801C4.34766 98.0247 6.36589 94.8021 8.83984 92.1328C11.3138 89.3984 14.0482 87.2826 17.043 85.7852C20.1029 84.2878 23.1302 83.5391 26.125 83.5391C27.1016 83.5391 27.9479 83.8971 28.6641 84.6133C29.3802 85.2643 29.7383 86.1107 29.7383 87.1523C29.7383 88.0638 29.4453 88.8776 28.8594 89.5938C28.2734 90.3099 27.4922 90.7331 26.5156 90.8633C24.5625 91.1237 22.4792 91.7422 20.2656 92.7188C18.0521 93.6953 16.0013 95.1276 14.1133 97.0156C12.2904 98.8385 10.7604 101.182 9.52344 104.047C8.35156 106.911 7.76562 110.329 7.76562 114.301C7.76562 117.556 8.41667 120.095 9.71875 121.918C11.0859 123.741 13.0391 124.652 15.5781 124.652C16.6198 124.652 17.7266 124.392 18.8984 123.871C20.0703 123.285 21.3073 122.178 22.6094 120.551C23.9766 118.923 25.4414 116.612 27.0039 113.617C28.6315 110.622 30.4219 106.684 32.375 101.801C31.2682 96.0716 30.2591 89.4635 29.3477 81.9766C28.4362 74.4896 27.9805 66.1237 27.9805 56.8789C27.9805 52.8424 28.1107 48.6432 28.3711 44.2812C28.6315 39.8542 29.0547 35.5573 29.6406 31.3906C30.2266 27.1589 31.0078 23.1549 31.9844 19.3789C32.9609 15.6029 34.1328 12.2826 35.5 9.41797C36.9323 6.55339 38.5924 4.30729 40.4805 2.67969C42.3685 0.986979 44.5169 0.140625 46.9258 0.140625C49.0742 0.140625 50.8971 0.726562 52.3945 1.89844C53.8919 3.07031 55.0964 4.69792 56.0078 6.78125C56.9844 8.86458 57.7005 11.3711 58.1562 14.3008C58.612 17.2305 58.8398 20.4531 58.8398 23.9688C58.8398 31.5208 58.1888 39.0729 56.8867 46.625C55.5846 54.1771 53.957 61.4036 52.0039 68.3047C50.1159 75.2057 48.0977 81.5859 45.9492 87.4453C43.8008 93.3047 41.8477 98.3503 40.0898 102.582ZM51.5156 23.8711C51.5156 22.2435 51.4505 20.4857 51.3203 18.5977C51.2552 16.7096 51.0273 14.9518 50.6367 13.3242C50.3112 11.6315 49.8555 10.2318 49.2695 9.125C48.6836 8.01823 47.9023 7.46484 46.9258 7.46484C45.2982 7.46484 43.7682 8.89714 42.3359 11.7617C40.9688 14.6263 39.7643 18.4023 38.7227 23.0898C37.681 27.7122 36.8346 32.9857 36.1836 38.9102C35.5977 44.7695 35.3047 50.694 35.3047 56.6836C35.3047 62.4128 35.5326 68.1419 35.9883 73.8711C36.444 79.6003 36.9648 84.7109 37.5508 89.2031C39.4388 84.1901 41.2292 79.0469 42.9219 73.7734C44.6146 68.4349 46.0794 62.9987 47.3164 57.4648C48.6185 51.931 49.6276 46.3646 50.3438 40.7656C51.125 35.1016 51.5156 29.4701 51.5156 23.8711ZM86.9648 120.258C88.332 122.146 90.0898 123.676 92.2383 124.848C94.3867 125.954 97.0234 126.508 100.148 126.508C103.339 126.508 106.236 125.759 108.84 124.262C111.444 122.699 113.82 120.681 115.969 118.207C118.117 115.733 120.038 112.966 121.73 109.906C123.423 106.846 124.953 103.786 126.32 100.727C126.646 100.01 127.102 99.4896 127.688 99.1641C128.273 98.7734 128.924 98.5781 129.641 98.5781C130.747 98.5781 131.626 98.9688 132.277 99.75C132.993 100.531 133.352 101.378 133.352 102.289C133.352 102.615 133.319 102.908 133.254 103.168C133.189 103.363 133.091 103.591 132.961 103.852C128.469 113.747 123.553 121.202 118.215 126.215C112.941 131.228 106.952 133.799 100.246 133.93C95.9492 133.93 92.2383 133.083 89.1133 131.391C85.9883 129.763 83.4167 127.647 81.3984 125.043C79.3802 122.374 77.8828 119.379 76.9062 116.059C75.9297 112.738 75.4414 109.418 75.4414 106.098C75.4414 102.777 75.832 99.7174 76.6133 96.918C77.4596 94.1185 78.6315 91.6771 80.1289 89.5938C81.6914 87.5104 83.5143 85.8828 85.5977 84.7109C87.7461 83.5391 90.0898 82.9531 92.6289 82.9531C94.1263 82.9531 95.5911 83.2786 97.0234 83.9297C98.5208 84.5156 99.8555 85.3945 101.027 86.5664C102.199 87.6732 103.143 89.0404 103.859 90.668C104.576 92.2956 104.934 94.151 104.934 96.2344C104.934 98.9036 104.478 101.41 103.566 103.754C102.655 106.098 101.385 108.279 99.7578 110.297C98.1953 112.315 96.3073 114.171 94.0938 115.863C91.8802 117.556 89.5039 119.021 86.9648 120.258ZM84.0352 113.91C86.0534 113.064 87.8763 111.99 89.5039 110.688C91.1966 109.385 92.6289 107.953 93.8008 106.391C94.9727 104.828 95.8841 103.201 96.5352 101.508C97.1862 99.75 97.5117 97.9922 97.5117 96.2344C97.5117 94.2812 97.0234 92.8164 96.0469 91.8398C95.0703 90.7982 93.931 90.2773 92.6289 90.2773C90.8711 90.2773 89.3737 90.7656 88.1367 91.7422C86.8997 92.7188 85.8906 93.9883 85.1094 95.5508C84.3281 97.1133 83.7422 98.8711 83.3516 100.824C83.026 102.712 82.8633 104.6 82.8633 106.488C82.8633 107.66 82.9609 108.897 83.1562 110.199C83.4167 111.501 83.7096 112.738 84.0352 113.91ZM182.082 120.258C183.449 122.146 185.207 123.676 187.355 124.848C189.504 125.954 192.141 126.508 195.266 126.508C198.456 126.508 201.353 125.759 203.957 124.262C206.561 122.699 208.938 120.681 211.086 118.207C213.234 115.733 215.155 112.966 216.848 109.906C218.54 106.846 220.07 103.786 221.438 100.727C221.763 100.01 222.219 99.4896 222.805 99.1641C223.391 98.7734 224.042 98.5781 224.758 98.5781C225.865 98.5781 226.743 98.9688 227.395 99.75C228.111 100.531 228.469 101.378 228.469 102.289C228.469 102.615 228.436 102.908 228.371 103.168C228.306 103.363 228.208 103.591 228.078 103.852C223.586 113.747 218.671 121.202 213.332 126.215C208.059 131.228 202.069 133.799 195.363 133.93C191.066 133.93 187.355 133.083 184.23 131.391C181.105 129.763 178.534 127.647 176.516 125.043C174.497 122.374 173 119.379 172.023 116.059C171.047 112.738 170.559 109.418 170.559 106.098C170.559 102.777 170.949 99.7174 171.73 96.918C172.577 94.1185 173.749 91.6771 175.246 89.5938C176.809 87.5104 178.632 85.8828 180.715 84.7109C182.863 83.5391 185.207 82.9531 187.746 82.9531C189.243 82.9531 190.708 83.2786 192.141 83.9297C193.638 84.5156 194.973 85.3945 196.145 86.5664C197.316 87.6732 198.26 89.0404 198.977 90.668C199.693 92.2956 200.051 94.151 200.051 96.2344C200.051 98.9036 199.595 101.41 198.684 103.754C197.772 106.098 196.503 108.279 194.875 110.297C193.312 112.315 191.424 114.171 189.211 115.863C186.997 117.556 184.621 119.021 182.082 120.258ZM179.152 113.91C181.171 113.064 182.993 111.99 184.621 110.688C186.314 109.385 187.746 107.953 188.918 106.391C190.09 104.828 191.001 103.201 191.652 101.508C192.303 99.75 192.629 97.9922 192.629 96.2344C192.629 94.2812 192.141 92.8164 191.164 91.8398C190.188 90.7982 189.048 90.2773 187.746 90.2773C185.988 90.2773 184.491 90.7656 183.254 91.7422C182.017 92.7188 181.008 93.9883 180.227 95.5508C179.445 97.1133 178.859 98.8711 178.469 100.824C178.143 102.712 177.98 104.6 177.98 106.488C177.98 107.66 178.078 108.897 178.273 110.199C178.534 111.501 178.827 112.738 179.152 113.91ZM232.375 94.8672C231.984 95.9089 231.496 97.0807 230.91 98.3828C230.389 99.6849 229.771 101.052 229.055 102.484C228.469 103.591 227.85 104.47 227.199 105.121C226.613 105.707 225.832 106 224.855 106C223.749 106 222.87 105.674 222.219 105.023C221.568 104.307 221.242 103.493 221.242 102.582C221.242 102.257 221.275 101.996 221.34 101.801C221.405 101.54 221.568 101.15 221.828 100.629C223.521 97.3737 224.758 94.5417 225.539 92.1328C226.385 89.6589 227.069 87.0872 227.59 84.418C227.134 82.9206 226.809 81.651 226.613 80.6094C226.418 79.5677 226.32 78.4935 226.32 77.3867C226.32 75.2383 226.776 73.513 227.688 72.2109C228.599 70.8438 229.868 70.1602 231.496 70.1602C232.993 70.1602 234.165 70.8112 235.012 72.1133C235.923 73.4154 236.379 75.0104 236.379 76.8984C236.379 77.9401 236.281 78.9818 236.086 80.0234C235.891 81.0651 235.63 82.3672 235.305 83.9297C236.802 87.6406 238.299 90.9284 239.797 93.793C241.294 96.6576 242.629 99.2943 243.801 101.703C244.973 104.047 245.917 106.26 246.633 108.344C247.414 110.427 247.805 112.51 247.805 114.594C247.805 117.328 247.251 119.932 246.145 122.406C245.038 124.88 243.215 126.964 240.676 128.656C241.001 128.721 241.327 128.754 241.652 128.754C241.978 128.754 242.303 128.754 242.629 128.754C246.34 128.754 249.758 127.908 252.883 126.215C256.008 124.522 258.807 122.341 261.281 119.672C263.82 116.938 266.066 113.943 268.02 110.688C269.973 107.367 271.665 104.079 273.098 100.824C273.749 99.3268 274.66 98.5781 275.832 98.5781C276.939 98.5781 277.785 98.9688 278.371 99.75C279.022 100.531 279.348 101.378 279.348 102.289C279.348 102.81 279.25 103.298 279.055 103.754C278.339 105.512 277.395 107.53 276.223 109.809C275.116 112.022 273.749 114.333 272.121 116.742C270.559 119.086 268.736 121.397 266.652 123.676C264.569 125.954 262.225 128.005 259.621 129.828C257.082 131.586 254.283 132.986 251.223 134.027C248.163 135.134 244.81 135.688 241.164 135.688C236.802 135.688 232.733 134.906 228.957 133.344C225.246 131.846 222.219 129.34 219.875 125.824C219.484 125.238 219.289 124.62 219.289 123.969C219.289 122.992 219.647 122.146 220.363 121.43C221.145 120.648 222.023 120.258 223 120.258C224.042 120.258 224.921 120.616 225.637 121.332C225.702 121.462 225.93 121.69 226.32 122.016C226.711 122.276 227.167 122.602 227.688 122.992C228.273 123.318 228.924 123.611 229.641 123.871C230.422 124.132 231.203 124.262 231.984 124.262C233.547 124.262 234.849 123.936 235.891 123.285C236.997 122.634 237.876 121.853 238.527 120.941C239.178 119.965 239.634 118.956 239.895 117.914C240.22 116.807 240.383 115.863 240.383 115.082C240.383 113.454 240.122 111.827 239.602 110.199C239.081 108.572 238.397 106.944 237.551 105.316C236.77 103.689 235.891 102.029 234.914 100.336C234.003 98.5781 233.156 96.7552 232.375 94.8672ZM351.418 33.2461C351.418 34.2878 351.06 35.1341 350.344 35.7852C349.628 36.3711 348.749 36.6641 347.707 36.6641H298.195V37.7383C298.195 41.7096 297.902 45.9414 297.316 50.4336C296.73 54.9258 295.917 59.418 294.875 63.9102C293.898 68.3372 292.759 72.6667 291.457 76.8984C290.22 81.1302 288.918 85.0365 287.551 88.6172C286.249 92.1979 284.947 95.3229 283.645 97.9922C282.342 100.596 281.171 102.549 280.129 103.852C280.975 106.846 281.984 109.646 283.156 112.25C284.328 114.789 285.63 117.035 287.062 118.988C288.56 120.876 290.155 122.374 291.848 123.48C293.54 124.587 295.363 125.141 297.316 125.141C299.595 125.141 301.841 124.197 304.055 122.309C306.333 120.355 308.417 118.077 310.305 115.473C312.258 112.803 313.951 110.134 315.383 107.465C316.88 104.73 317.954 102.549 318.605 100.922C319.257 99.3594 320.396 98.5781 322.023 98.5781C323.13 98.5781 324.009 98.9688 324.66 99.75C325.376 100.531 325.734 101.378 325.734 102.289C325.734 102.745 325.637 103.201 325.441 103.656C325.246 104.112 324.758 105.154 323.977 106.781C323.26 108.409 322.284 110.297 321.047 112.445C319.875 114.594 318.475 116.872 316.848 119.281C315.285 121.625 313.495 123.773 311.477 125.727C309.523 127.68 307.408 129.307 305.129 130.609C302.85 131.911 300.441 132.562 297.902 132.562C293.41 132.562 289.374 131.098 285.793 128.168C282.212 125.238 279.152 121.137 276.613 115.863C274.139 110.59 272.251 104.34 270.949 97.1133C269.647 89.8867 268.996 81.9766 268.996 73.3828C268.996 71.2344 269.029 68.7279 269.094 65.8633C269.159 62.9336 269.289 59.8737 269.484 56.6836C269.68 53.4284 269.973 50.1081 270.363 46.7227C270.754 43.2721 271.275 39.9193 271.926 36.6641H236.867C235.826 36.6641 234.947 36.3711 234.23 35.7852C233.514 35.1341 233.156 34.2878 233.156 33.2461C233.156 32.2044 233.514 31.3906 234.23 30.8047C234.947 30.1536 235.826 29.8281 236.867 29.8281H273.586C274.237 27.4844 274.986 25.3359 275.832 23.3828C276.743 21.4297 277.753 19.737 278.859 18.3047C280.031 16.8724 281.301 15.7656 282.668 14.9844C284.1 14.138 285.663 13.7148 287.355 13.7148C288.983 13.7148 290.383 14.138 291.555 14.9844C292.792 15.7656 293.833 16.8724 294.68 18.3047C295.526 19.737 296.177 21.4297 296.633 23.3828C297.154 25.3359 297.544 27.4844 297.805 29.8281H347.707C348.749 29.8281 349.628 30.1536 350.344 30.8047C351.06 31.3906 351.418 32.2044 351.418 33.2461ZM277.883 94.0859C279.836 89.7891 281.594 85.1667 283.156 80.2188C284.784 75.2057 286.151 70.1602 287.258 65.082C288.43 60.0039 289.309 55.0234 289.895 50.1406C290.546 45.2578 290.871 40.7656 290.871 36.6641H279.348C278.436 40.7005 277.688 45.7135 277.102 51.7031C276.581 57.6276 276.32 64.8542 276.32 73.3828C276.32 78.1354 276.451 82.1393 276.711 85.3945C276.971 88.5846 277.362 91.4818 277.883 94.0859ZM286.965 21.0391C286.379 21.0391 285.533 21.6901 284.426 22.9922C283.319 24.2292 282.212 26.5078 281.105 29.8281H290.48C290.155 27.0938 289.667 24.9453 289.016 23.3828C288.43 21.8203 287.746 21.0391 286.965 21.0391ZM279.445 101.117V101.215V101.117ZM351.418 120.062C349.139 123.773 346.47 126.703 343.41 128.852C340.415 131 337.388 132.074 334.328 132.074C331.854 132.074 329.641 131.618 327.688 130.707C325.734 129.796 324.042 128.526 322.609 126.898C321.177 125.206 320.07 123.188 319.289 120.844C318.573 118.5 318.215 115.863 318.215 112.934C318.215 108.376 318.638 104.34 319.484 100.824C320.396 97.3086 321.372 94.3789 322.414 92.0352C323.456 89.6263 324.432 87.8034 325.344 86.5664C326.255 85.3294 326.711 84.7109 326.711 84.7109C327.036 84.3203 327.427 84.0273 327.883 83.832C328.404 83.6367 328.924 83.5391 329.445 83.5391C330.487 83.5391 331.333 83.9297 331.984 84.7109C332.701 85.4271 333.059 86.2734 333.059 87.25C333.059 87.6406 332.961 88.0312 332.766 88.4219C332.635 88.8125 332.473 89.2031 332.277 89.5938C331.952 90.1797 331.431 91.0911 330.715 92.3281C329.999 93.5 329.25 95.0625 328.469 97.0156C327.688 98.9688 327.004 101.28 326.418 103.949C325.832 106.553 325.539 109.548 325.539 112.934C325.539 116.775 326.288 119.704 327.785 121.723C329.348 123.676 331.529 124.652 334.328 124.652C335.5 124.652 336.835 124.294 338.332 123.578C339.895 122.797 341.392 121.625 342.824 120.062C344.322 118.5 345.624 116.514 346.73 114.105C347.837 111.697 348.553 108.865 348.879 105.609L350.344 88.8125C350.474 87.8359 350.897 87.0221 351.613 86.3711C352.329 85.7201 353.176 85.3945 354.152 85.3945C355.259 85.3945 356.138 85.8177 356.789 86.6641C357.44 87.4453 357.766 88.3568 357.766 89.3984L356.496 105.609C356.366 106.977 356.398 108.767 356.594 110.98C356.854 113.194 357.342 115.375 358.059 117.523C358.775 119.672 359.849 121.527 361.281 123.09C362.714 124.587 364.602 125.336 366.945 125.336C368.638 125.336 370.298 124.913 371.926 124.066C373.553 123.155 375.116 121.983 376.613 120.551C378.111 119.118 379.478 117.523 380.715 115.766C382.017 113.943 383.189 112.12 384.23 110.297C385.337 108.474 386.281 106.749 387.062 105.121C387.844 103.428 388.495 101.996 389.016 100.824C389.341 100.108 389.797 99.5547 390.383 99.1641C390.969 98.7734 391.62 98.5781 392.336 98.5781C393.508 98.5781 394.419 98.9688 395.07 99.75C395.721 100.531 396.047 101.378 396.047 102.289C396.047 102.81 395.949 103.298 395.754 103.754C395.493 104.275 394.973 105.382 394.191 107.074C393.475 108.702 392.499 110.59 391.262 112.738C390.09 114.822 388.658 117.035 386.965 119.379C385.272 121.723 383.384 123.904 381.301 125.922C379.217 127.875 376.939 129.503 374.465 130.805C372.056 132.042 369.452 132.66 366.652 132.66C362.811 132.66 359.621 131.586 357.082 129.438C354.543 127.224 352.655 124.099 351.418 120.062ZM427.004 102.582C430.194 117.621 434.816 125.141 440.871 125.141C443.215 125.141 445.461 124.294 447.609 122.602C449.758 120.844 451.743 118.728 453.566 116.254C455.454 113.715 457.115 111.046 458.547 108.246C459.979 105.447 461.151 103.005 462.062 100.922C462.714 99.3594 463.853 98.5781 465.48 98.5781C466.522 98.5781 467.401 98.9688 468.117 99.75C468.833 100.531 469.191 101.378 469.191 102.289C469.191 102.81 469.094 103.266 468.898 103.656C468.443 104.763 467.759 106.26 466.848 108.148C466.001 109.971 464.927 111.957 463.625 114.105C462.388 116.189 460.988 118.337 459.426 120.551C457.863 122.764 456.138 124.75 454.25 126.508C452.362 128.266 450.344 129.73 448.195 130.902C446.112 132.009 443.898 132.562 441.555 132.562C437.193 132.562 433.449 131.065 430.324 128.07C427.199 125.01 424.497 119.997 422.219 113.031C419.094 119.672 415.936 124.49 412.746 127.484C409.556 130.479 406.105 131.977 402.395 131.977C400.441 131.977 398.553 131.651 396.73 131C394.908 130.414 393.312 129.405 391.945 127.973C390.578 126.54 389.471 124.717 388.625 122.504C387.779 120.225 387.355 117.458 387.355 114.203C387.355 109.711 388.137 105.577 389.699 101.801C391.262 98.0247 393.28 94.8021 395.754 92.1328C398.228 89.3984 400.962 87.2826 403.957 85.7852C407.017 84.2878 410.044 83.5391 413.039 83.5391C414.016 83.5391 414.862 83.8971 415.578 84.6133C416.294 85.2643 416.652 86.1107 416.652 87.1523C416.652 88.0638 416.359 88.8776 415.773 89.5938C415.188 90.3099 414.406 90.7331 413.43 90.8633C411.477 91.1237 409.393 91.7422 407.18 92.7188C404.966 93.6953 402.915 95.1276 401.027 97.0156C399.204 98.8385 397.674 101.182 396.438 104.047C395.266 106.911 394.68 110.329 394.68 114.301C394.68 117.556 395.331 120.095 396.633 121.918C398 123.741 399.953 124.652 402.492 124.652C403.534 124.652 404.641 124.392 405.812 123.871C406.984 123.285 408.221 122.178 409.523 120.551C410.891 118.923 412.355 116.612 413.918 113.617C415.546 110.622 417.336 106.684 419.289 101.801C418.182 96.0716 417.173 89.4635 416.262 81.9766C415.35 74.4896 414.895 66.1237 414.895 56.8789C414.895 52.8424 415.025 48.6432 415.285 44.2812C415.546 39.8542 415.969 35.5573 416.555 31.3906C417.141 27.1589 417.922 23.1549 418.898 19.3789C419.875 15.6029 421.047 12.2826 422.414 9.41797C423.846 6.55339 425.507 4.30729 427.395 2.67969C429.283 0.986979 431.431 0.140625 433.84 0.140625C435.988 0.140625 437.811 0.726562 439.309 1.89844C440.806 3.07031 442.01 4.69792 442.922 6.78125C443.898 8.86458 444.615 11.3711 445.07 14.3008C445.526 17.2305 445.754 20.4531 445.754 23.9688C445.754 31.5208 445.103 39.0729 443.801 46.625C442.499 54.1771 440.871 61.4036 438.918 68.3047C437.03 75.2057 435.012 81.5859 432.863 87.4453C430.715 93.3047 428.762 98.3503 427.004 102.582ZM438.43 23.8711C438.43 22.2435 438.365 20.4857 438.234 18.5977C438.169 16.7096 437.941 14.9518 437.551 13.3242C437.225 11.6315 436.77 10.2318 436.184 9.125C435.598 8.01823 434.816 7.46484 433.84 7.46484C432.212 7.46484 430.682 8.89714 429.25 11.7617C427.883 14.6263 426.678 18.4023 425.637 23.0898C424.595 27.7122 423.749 32.9857 423.098 38.9102C422.512 44.7695 422.219 50.694 422.219 56.6836C422.219 62.4128 422.447 68.1419 422.902 73.8711C423.358 79.6003 423.879 84.7109 424.465 89.2031C426.353 84.1901 428.143 79.0469 429.836 73.7734C431.529 68.4349 432.993 62.9987 434.23 57.4648C435.533 51.931 436.542 46.3646 437.258 40.7656C438.039 35.1016 438.43 29.4701 438.43 23.8711ZM507.18 120.258C505.552 120.258 504.12 120.128 502.883 119.867C501.906 121.82 500.734 123.643 499.367 125.336C498 126.964 496.405 128.396 494.582 129.633C492.824 130.87 490.839 131.846 488.625 132.562C486.411 133.279 484.003 133.637 481.398 133.637C478.339 133.637 475.539 133.083 473 131.977C470.461 130.935 468.247 129.47 466.359 127.582C464.471 125.629 463.007 123.318 461.965 120.648C460.923 117.914 460.402 114.919 460.402 111.664C460.402 107.497 461.151 103.884 462.648 100.824C464.146 97.6992 465.871 95.1276 467.824 93.1094C469.777 91.026 471.73 89.4961 473.684 88.5195C475.637 87.4779 477.102 86.957 478.078 86.957C479.185 86.957 479.999 87.25 480.52 87.8359C481.105 88.4219 481.398 89.2031 481.398 90.1797C481.398 91.2865 481.04 92.1328 480.324 92.7188C479.673 93.2396 478.827 93.7604 477.785 94.2812C476.743 94.8021 475.637 95.5508 474.465 96.5273C473.293 97.4388 472.186 98.6107 471.145 100.043C470.168 101.475 469.354 103.168 468.703 105.121C468.052 107.074 467.727 109.255 467.727 111.664C467.727 113.812 468.052 115.831 468.703 117.719C469.354 119.542 470.298 121.137 471.535 122.504C472.772 123.806 474.237 124.848 475.93 125.629C477.622 126.345 479.51 126.703 481.594 126.703C485.305 126.703 488.365 125.857 490.773 124.164C493.247 122.406 495.135 120.193 496.438 117.523C492.596 115.505 489.439 112.641 486.965 108.93C484.491 105.219 483.254 101.052 483.254 96.4297C483.254 92.7188 484.133 89.6914 485.891 87.3477C487.714 85.0039 490.09 83.832 493.02 83.832C494.777 83.832 496.438 84.2552 498 85.1016C499.562 85.9479 500.93 87.2826 502.102 89.1055C503.339 90.9284 504.315 93.2721 505.031 96.1367C505.747 99.0013 506.105 102.419 506.105 106.391C506.105 108.474 505.845 110.655 505.324 112.934C505.715 112.999 506.105 113.031 506.496 113.031C506.887 113.031 507.31 113.031 507.766 113.031C509.979 113.031 511.965 112.771 513.723 112.25C515.48 111.729 517.076 110.948 518.508 109.906C519.94 108.865 521.21 107.53 522.316 105.902C523.488 104.275 524.595 102.387 525.637 100.238C525.832 99.8477 526.255 99.4896 526.906 99.1641C527.557 98.7734 528.208 98.5781 528.859 98.5781C529.706 98.5781 530.487 98.9362 531.203 99.6523C531.984 100.303 532.375 101.182 532.375 102.289C532.375 102.81 532.245 103.396 531.984 104.047C531.724 104.633 531.464 105.186 531.203 105.707C530.096 107.66 528.794 109.548 527.297 111.371C525.865 113.129 524.139 114.691 522.121 116.059C520.168 117.361 517.954 118.402 515.48 119.184C513.007 119.965 510.24 120.323 507.18 120.258ZM490.48 95.6484C490.48 96.8854 490.643 98.1875 490.969 99.5547C491.294 100.922 491.783 102.289 492.434 103.656C493.15 104.958 493.996 106.228 494.973 107.465C496.014 108.637 497.219 109.646 498.586 110.492C498.781 109.125 498.879 107.79 498.879 106.488C498.879 104.73 498.749 102.94 498.488 101.117C498.228 99.2943 497.837 97.6341 497.316 96.1367C496.861 94.5742 496.275 93.3372 495.559 92.4258C494.842 91.4492 493.996 90.9609 493.02 90.9609C492.629 90.9609 492.108 91.2539 491.457 91.8398C490.806 92.4258 490.48 93.6953 490.48 95.6484ZM536.281 94.8672C535.891 95.9089 535.402 97.0807 534.816 98.3828C534.296 99.6849 533.677 101.052 532.961 102.484C532.375 103.591 531.757 104.47 531.105 105.121C530.52 105.707 529.738 106 528.762 106C527.655 106 526.776 105.674 526.125 105.023C525.474 104.307 525.148 103.493 525.148 102.582C525.148 102.257 525.181 101.996 525.246 101.801C525.311 101.54 525.474 101.15 525.734 100.629C527.427 97.3737 528.664 94.5417 529.445 92.1328C530.292 89.6589 530.975 87.0872 531.496 84.418C531.04 82.9206 530.715 81.651 530.52 80.6094C530.324 79.5677 530.227 78.4935 530.227 77.3867C530.227 75.2383 530.682 73.513 531.594 72.2109C532.505 70.8438 533.775 70.1602 535.402 70.1602C536.9 70.1602 538.072 70.8112 538.918 72.1133C539.829 73.4154 540.285 75.0104 540.285 76.8984C540.285 77.9401 540.188 78.9818 539.992 80.0234C539.797 81.0651 539.536 82.3672 539.211 83.9297C540.708 87.6406 542.206 90.9284 543.703 93.793C545.201 96.6576 546.535 99.2943 547.707 101.703C548.879 104.047 549.823 106.26 550.539 108.344C551.32 110.427 551.711 112.51 551.711 114.594C551.711 117.328 551.158 119.932 550.051 122.406C548.944 124.88 547.121 126.964 544.582 128.656C544.908 128.721 545.233 128.754 545.559 128.754C545.884 128.754 546.21 128.754 546.535 128.754C550.246 128.754 553.664 127.908 556.789 126.215C559.914 124.522 562.714 122.341 565.188 119.672C567.727 116.938 569.973 113.943 571.926 110.688C573.879 107.367 575.572 104.079 577.004 100.824C577.655 99.3268 578.566 98.5781 579.738 98.5781C580.845 98.5781 581.691 98.9688 582.277 99.75C582.928 100.531 583.254 101.378 583.254 102.289C583.254 102.81 583.156 103.298 582.961 103.754C582.245 105.512 581.301 107.53 580.129 109.809C579.022 112.022 577.655 114.333 576.027 116.742C574.465 119.086 572.642 121.397 570.559 123.676C568.475 125.954 566.132 128.005 563.527 129.828C560.988 131.586 558.189 132.986 555.129 134.027C552.069 135.134 548.716 135.688 545.07 135.688C540.708 135.688 536.639 134.906 532.863 133.344C529.152 131.846 526.125 129.34 523.781 125.824C523.391 125.238 523.195 124.62 523.195 123.969C523.195 122.992 523.553 122.146 524.27 121.43C525.051 120.648 525.93 120.258 526.906 120.258C527.948 120.258 528.827 120.616 529.543 121.332C529.608 121.462 529.836 121.69 530.227 122.016C530.617 122.276 531.073 122.602 531.594 122.992C532.18 123.318 532.831 123.611 533.547 123.871C534.328 124.132 535.109 124.262 535.891 124.262C537.453 124.262 538.755 123.936 539.797 123.285C540.904 122.634 541.783 121.853 542.434 120.941C543.085 119.965 543.54 118.956 543.801 117.914C544.126 116.807 544.289 115.863 544.289 115.082C544.289 113.454 544.029 111.827 543.508 110.199C542.987 108.572 542.303 106.944 541.457 105.316C540.676 103.689 539.797 102.029 538.82 100.336C537.909 98.5781 537.062 96.7552 536.281 94.8672Z" fill="#F6543B"/>
</svg>
