<svg width="680" height="436" viewBox="0 0 680 436" fill="none" xmlns="http://www.w3.org/2000/svg">
<path d="M185.003 89.6133C185.003 97.4909 183.506 104.555 180.511 110.805C177.516 116.99 173.285 122.263 167.816 126.625C162.347 130.922 155.804 134.242 148.187 136.586C140.57 138.865 132.171 140.004 122.992 140.004C121.885 140.004 120.908 139.711 120.062 139.125C119.281 138.474 118.89 137.53 118.89 136.293C118.89 135.316 119.248 134.47 119.964 133.754C120.68 133.038 121.559 132.68 122.601 132.68C130.804 132.68 138.291 131.736 145.062 129.848C151.833 127.96 157.627 125.193 162.445 121.547C167.262 117.836 171.006 113.311 173.675 107.973C176.345 102.634 177.679 96.5143 177.679 89.6133C177.679 82.582 176.117 76.332 172.992 70.8633C169.932 65.3945 165.602 60.7721 160.003 56.9961C154.47 53.2201 147.829 50.3555 140.081 48.4023C132.399 46.4492 123.936 45.4727 114.691 45.4727C105.967 45.4727 97.5034 46.1888 89.3002 47.6211C81.1622 49.0534 73.5125 51.0716 66.351 53.6758C59.1896 56.2799 52.6466 59.4049 46.7221 63.0508C40.8627 66.6966 35.8172 70.7005 31.5854 75.0625C27.4187 79.4245 24.1635 84.112 21.8198 89.125C19.476 94.0729 18.3041 99.2161 18.3041 104.555C18.3041 109.242 19.1179 113.344 20.7455 116.859C22.3731 120.375 24.5216 123.337 27.1909 125.746C29.9252 128.09 33.0502 129.848 36.5659 131.02C40.0815 132.191 43.7599 132.777 47.601 132.777C52.1583 132.777 56.1948 132.289 59.7104 131.312C63.2911 130.336 66.2859 129.262 68.6948 128.09C71.1687 126.918 73.0567 125.844 74.3588 124.867C75.6609 123.826 76.3771 123.24 76.5073 123.109C77.2234 122.393 78.0698 122.035 79.0463 122.035C80.0229 122.035 80.8692 122.426 81.5854 123.207C82.3666 123.923 82.7573 124.77 82.7573 125.746C82.7573 126.853 82.3666 127.732 81.5854 128.383C81.4552 128.513 80.6088 129.197 79.0463 130.434C77.5489 131.671 75.3354 133.038 72.4057 134.535C69.5411 135.967 66.0255 137.27 61.8588 138.441C57.6922 139.613 52.9396 140.199 47.601 140.199C42.7182 140.199 38.0307 139.385 33.5385 137.758C29.1114 136.13 25.2052 133.786 21.8198 130.727C18.4995 127.602 15.8302 123.858 13.812 119.496C11.8588 115.069 10.8823 110.089 10.8823 104.555C10.8823 98.5 12.1192 92.6732 14.5932 87.0742C17.1323 81.4102 20.6479 76.1367 25.1401 71.2539C29.6974 66.306 35.1336 61.8138 41.4487 57.7773C47.7638 53.6758 54.7625 50.1927 62.4448 47.3281C70.1271 44.3984 78.3627 42.1523 87.1518 40.5898C95.9409 38.9622 105.055 38.1484 114.496 38.1484C124.847 38.1484 134.352 39.3203 143.011 41.6641C151.67 44.0078 159.092 47.3932 165.277 51.8203C171.527 56.2474 176.377 61.651 179.828 68.0312C183.278 74.3464 185.003 81.5404 185.003 89.6133ZM126.996 66.3711C127.972 66.3711 128.818 66.7292 129.535 67.4453C130.316 68.0964 130.706 68.9753 130.706 70.082C130.706 70.7331 130.511 71.319 130.121 71.8398C129.795 72.3607 129.372 72.849 128.851 73.3047C125.205 76.1693 122.275 79.2617 120.062 82.582C117.914 85.9023 116.253 89.4831 115.081 93.3242C113.975 97.1003 113.226 101.137 112.835 105.434C112.51 109.73 112.347 114.223 112.347 118.91V131.215C112.347 139.288 111.631 146.97 110.199 154.262C108.766 161.488 106.325 167.836 102.874 173.305C99.489 178.773 94.9317 183.103 89.2026 186.293C83.4734 189.548 76.2794 191.176 67.6205 191.176C63.7143 191.176 59.8731 190.688 56.0971 189.711C52.3862 188.799 48.8705 187.465 45.5502 185.707C42.2299 183.884 39.17 181.671 36.3705 179.066C33.5711 176.462 31.1622 173.533 29.144 170.277C29.0138 170.017 28.8836 169.724 28.7534 169.398C28.6231 169.008 28.558 168.65 28.558 168.324C28.558 167.413 28.8836 166.599 29.5346 165.883C30.2508 165.102 31.1622 164.711 32.269 164.711C32.92 164.711 33.506 164.906 34.0268 165.297C34.6127 165.622 35.101 166.046 35.4916 166.566C39.6583 172.361 44.3784 176.723 49.6518 179.652C54.9252 182.517 60.9148 183.949 67.6205 183.949C75.3028 183.949 81.5528 182.549 86.3705 179.75C91.2534 176.885 95.062 173.012 97.7963 168.129C100.596 163.181 102.484 157.419 103.46 150.844C104.502 144.268 105.023 137.27 105.023 129.848V117.445C105.023 113.083 105.218 108.591 105.609 103.969C105.999 99.2812 106.878 94.724 108.246 90.2969C109.678 85.8047 111.696 81.5729 114.3 77.6016C116.97 73.5651 120.55 70.0169 125.042 66.957C125.303 66.8268 125.628 66.6966 126.019 66.5664C126.41 66.4362 126.735 66.3711 126.996 66.3711ZM247.308 158.949C246.592 160.447 245.68 162.237 244.574 164.32C243.532 166.339 242.328 168.454 240.96 170.668C239.593 172.882 238.063 175.095 236.371 177.309C234.678 179.457 232.822 181.41 230.804 183.168C228.851 184.861 226.735 186.228 224.456 187.27C222.243 188.376 219.867 188.93 217.328 188.93C213.421 188.93 210.068 187.725 207.269 185.316C204.47 182.908 202.093 179.75 200.14 175.844C198.187 171.938 196.592 167.51 195.355 162.562C194.183 157.549 193.272 152.471 192.621 147.328C191.97 142.12 191.514 137.074 191.253 132.191C191.058 127.309 190.96 122.979 190.96 119.203C190.96 113.734 191.123 108.07 191.449 102.211C191.839 96.3516 192.425 90.6224 193.206 85.0234C193.988 79.4245 194.964 74.1185 196.136 69.1055C197.373 64.0924 198.805 59.6979 200.433 55.9219C202.126 52.1458 204.046 49.151 206.195 46.9375C208.343 44.724 210.785 43.6172 213.519 43.6172C215.667 43.6172 217.588 44.138 219.281 45.1797C221.039 46.1562 222.503 47.7839 223.675 50.0625C224.847 52.3411 225.759 55.3034 226.41 58.9492C227.061 62.5951 227.386 67.0547 227.386 72.3281C227.386 78.8385 226.703 85.5768 225.335 92.543C223.968 99.444 222.113 106.41 219.769 113.441C217.425 120.473 214.658 127.504 211.468 134.535C208.278 141.501 204.86 148.305 201.214 154.945C202.842 163.214 205.023 169.724 207.757 174.477C210.492 179.164 213.779 181.508 217.621 181.508C220.225 181.508 222.731 180.499 225.14 178.48C227.549 176.397 229.762 173.956 231.781 171.156C233.799 168.357 235.557 165.525 237.054 162.66C238.617 159.73 239.821 157.387 240.667 155.629C240.993 154.978 241.449 154.49 242.035 154.164C242.621 153.773 243.272 153.578 243.988 153.578C245.095 153.578 245.973 153.969 246.624 154.75C247.341 155.531 247.699 156.41 247.699 157.387C247.699 157.777 247.568 158.298 247.308 158.949ZM198.382 119.691C198.382 123.858 198.48 127.862 198.675 131.703C198.871 135.544 199.131 139.223 199.456 142.738C202.191 137.465 204.795 131.866 207.269 125.941C209.743 119.952 211.924 113.93 213.812 107.875C215.7 101.755 217.197 95.7005 218.304 89.7109C219.476 83.6562 220.062 77.8945 220.062 72.4258C220.062 64.7435 219.443 59.2422 218.206 55.9219C216.97 52.6016 215.309 50.9414 213.226 50.9414C211.859 50.9414 210.524 51.8854 209.222 53.7734C207.985 55.6615 206.813 58.2331 205.706 61.4883C204.6 64.7435 203.591 68.5846 202.679 73.0117C201.768 77.4388 200.986 82.1914 200.335 87.2695C199.749 92.3477 199.261 97.6536 198.871 103.188C198.545 108.721 198.382 114.223 198.382 119.691ZM316.253 158.754C315.993 159.275 315.44 160.382 314.593 162.074C313.812 163.702 312.77 165.59 311.468 167.738C310.231 169.887 308.766 172.133 307.074 174.477C305.381 176.82 303.493 178.969 301.41 180.922C299.326 182.875 297.08 184.503 294.671 185.805C292.262 187.042 289.723 187.66 287.054 187.66C283.278 187.66 280.088 186.456 277.484 184.047C274.945 181.638 273.089 178.611 271.917 174.965C269.704 178.676 267.067 181.638 264.007 183.852C260.947 186 257.887 187.074 254.828 187.074C252.419 187.074 250.238 186.651 248.285 185.805C246.331 184.893 244.671 183.656 243.304 182.094C241.937 180.466 240.863 178.578 240.081 176.43C239.365 174.281 239.007 171.938 239.007 169.398C239.007 164.32 239.854 159.861 241.546 156.02C243.304 152.113 245.518 148.858 248.187 146.254C250.856 143.65 253.786 141.697 256.976 140.395C260.231 139.092 263.356 138.441 266.351 138.441C268.369 138.441 270.225 138.734 271.917 139.32C273.61 139.841 275.042 140.427 276.214 141.078C277.451 141.729 278.395 142.348 279.046 142.934C279.697 143.454 280.055 143.747 280.121 143.812C280.837 144.659 281.195 145.538 281.195 146.449C281.195 147.426 280.837 148.305 280.121 149.086C279.404 149.802 278.558 150.16 277.581 150.16C276.54 150.16 275.661 149.802 274.945 149.086C274.815 148.956 274.522 148.728 274.066 148.402C273.61 148.012 272.992 147.621 272.21 147.23C271.429 146.84 270.485 146.514 269.378 146.254C268.337 145.928 267.132 145.766 265.765 145.766C263.747 145.766 261.598 146.221 259.32 147.133C257.041 148.044 254.958 149.477 253.07 151.43C251.182 153.318 249.587 155.727 248.285 158.656C247.048 161.521 246.429 164.939 246.429 168.91C246.429 170.147 246.559 171.417 246.82 172.719C247.08 173.956 247.536 175.095 248.187 176.137C248.838 177.178 249.717 178.025 250.824 178.676C251.93 179.327 253.298 179.652 254.925 179.652C256.097 179.652 257.432 179.262 258.929 178.48C260.492 177.699 261.956 176.495 263.324 174.867C264.756 173.24 266.025 171.189 267.132 168.715C268.304 166.241 269.118 163.311 269.574 159.926C269.704 159.014 270.127 158.266 270.843 157.68C271.559 157.029 272.406 156.703 273.382 156.703C274.294 156.703 275.075 157.061 275.726 157.777C276.442 158.493 276.833 159.307 276.898 160.219C276.963 161.456 277.093 163.214 277.289 165.492C277.484 167.706 277.907 169.919 278.558 172.133C279.274 174.346 280.316 176.267 281.683 177.895C283.05 179.522 284.938 180.336 287.347 180.336C288.91 180.336 290.44 179.913 291.937 179.066C293.499 178.22 294.997 177.113 296.429 175.746C297.927 174.314 299.326 172.719 300.628 170.961C301.996 169.138 303.233 167.315 304.339 165.492C305.446 163.669 306.423 161.911 307.269 160.219C308.115 158.526 308.831 157.061 309.417 155.824C309.743 155.108 310.199 154.555 310.785 154.164C311.436 153.773 312.119 153.578 312.835 153.578C313.942 153.578 314.821 154.001 315.472 154.848C316.188 155.629 316.546 156.475 316.546 157.387C316.546 157.842 316.449 158.298 316.253 158.754ZM331.195 177.211C332.236 175.062 333.441 172.719 334.808 170.18C336.175 167.576 337.64 164.971 339.203 162.367C340.765 159.698 342.393 157.061 344.085 154.457C345.843 151.853 347.666 149.379 349.554 147.035C351.442 144.757 353.33 143.129 355.218 142.152C357.171 141.111 358.994 140.59 360.687 140.59C364.072 140.59 366.579 141.827 368.206 144.301C369.834 146.775 370.648 149.835 370.648 153.48C370.648 154.327 370.583 155.368 370.453 156.605C370.387 157.777 370.29 159.047 370.16 160.414C370.095 161.781 369.997 163.181 369.867 164.613C369.802 165.98 369.769 167.283 369.769 168.52C369.769 170.082 369.834 171.579 369.964 173.012C370.16 174.444 370.485 175.714 370.941 176.82C371.397 177.862 372.048 178.708 372.894 179.359C373.74 179.945 374.847 180.238 376.214 180.238C378.688 180.238 381.097 179.294 383.441 177.406C385.785 175.453 387.933 173.174 389.886 170.57C391.904 167.901 393.63 165.199 395.062 162.465C396.559 159.73 397.666 157.517 398.382 155.824C398.708 155.108 399.164 154.555 399.749 154.164C400.4 153.773 401.084 153.578 401.8 153.578C402.907 153.578 403.786 154.001 404.437 154.848C405.153 155.629 405.511 156.475 405.511 157.387C405.511 157.842 405.414 158.298 405.218 158.754C404.958 159.275 404.437 160.349 403.656 161.977C402.874 163.604 401.833 165.492 400.531 167.641C399.294 169.724 397.829 171.97 396.136 174.379C394.443 176.723 392.555 178.871 390.472 180.824C388.454 182.777 386.24 184.405 383.831 185.707C381.488 187.009 379.014 187.66 376.41 187.66C373.48 187.66 371.104 187.107 369.281 186C367.458 184.828 366.025 183.331 364.984 181.508C363.942 179.62 363.226 177.569 362.835 175.355C362.51 173.077 362.347 170.798 362.347 168.52C362.347 167.543 362.38 166.436 362.445 165.199C362.575 163.962 362.705 162.66 362.835 161.293C363.031 159.926 363.161 158.559 363.226 157.191C363.356 155.824 363.421 154.522 363.421 153.285C363.421 151.202 363.096 149.802 362.445 149.086C361.794 148.305 361.208 147.914 360.687 147.914C359.645 147.914 358.441 148.533 357.074 149.77C355.772 150.941 354.372 152.504 352.874 154.457C351.442 156.41 349.945 158.624 348.382 161.098C346.885 163.507 345.453 165.915 344.085 168.324C342.783 170.733 341.546 173.044 340.374 175.258C339.268 177.406 338.389 179.197 337.738 180.629C336.436 183.363 335.134 185.186 333.831 186.098C332.529 187.074 331.195 187.562 329.828 187.562C327.94 187.562 326.41 187.009 325.238 185.902C324.131 184.73 323.578 183.103 323.578 181.02C323.578 180.564 323.643 179.685 323.773 178.383C323.903 177.016 324.066 175.421 324.261 173.598C324.456 171.71 324.652 169.691 324.847 167.543C325.042 165.395 325.238 163.279 325.433 161.195C325.628 159.047 325.791 157.061 325.921 155.238C326.052 153.415 326.117 151.885 326.117 150.648C326.117 149.021 326.052 147.458 325.921 145.961C325.791 144.464 325.531 143.552 325.14 143.227C324.554 143.422 323.512 144.659 322.015 146.938C320.518 149.151 318.597 153.09 316.253 158.754C315.928 159.47 315.44 160.023 314.789 160.414C314.137 160.805 313.454 161 312.738 161C311.631 161 310.752 160.642 310.101 159.926C309.45 159.145 309.124 158.266 309.124 157.289C309.124 156.833 309.222 156.345 309.417 155.824C312.347 148.858 315.081 143.747 317.621 140.492C320.225 137.172 322.796 135.512 325.335 135.512C326.833 135.512 328.102 135.902 329.144 136.684C330.186 137.4 330.999 138.376 331.585 139.613C332.236 140.85 332.692 142.217 332.953 143.715C333.278 145.212 333.441 146.742 333.441 148.305C333.441 149.477 333.343 151.299 333.148 153.773C333.018 156.247 332.822 158.917 332.562 161.781C332.302 164.581 332.041 167.38 331.781 170.18C331.585 172.979 331.39 175.323 331.195 177.211ZM420.257 177.211C421.299 175.062 422.503 172.719 423.871 170.18C425.238 167.576 426.703 164.971 428.265 162.367C429.828 159.698 431.455 157.061 433.148 154.457C434.906 151.853 436.729 149.379 438.617 147.035C440.505 144.757 442.393 143.129 444.281 142.152C446.234 141.111 448.057 140.59 449.749 140.59C453.135 140.59 455.641 141.827 457.269 144.301C458.897 146.775 459.71 149.835 459.71 153.48C459.71 154.327 459.645 155.368 459.515 156.605C459.45 157.777 459.352 159.047 459.222 160.414C459.157 161.781 459.059 163.181 458.929 164.613C458.864 165.98 458.831 167.283 458.831 168.52C458.831 170.082 458.897 171.579 459.027 173.012C459.222 174.444 459.548 175.714 460.003 176.82C460.459 177.862 461.11 178.708 461.956 179.359C462.803 179.945 463.91 180.238 465.277 180.238C467.751 180.238 470.16 179.294 472.503 177.406C474.847 175.453 476.996 173.174 478.949 170.57C480.967 167.901 482.692 165.199 484.124 162.465C485.622 159.73 486.729 157.517 487.445 155.824C487.77 155.108 488.226 154.555 488.812 154.164C489.463 153.773 490.147 153.578 490.863 153.578C491.97 153.578 492.848 154.001 493.499 154.848C494.216 155.629 494.574 156.475 494.574 157.387C494.574 157.842 494.476 158.298 494.281 158.754C494.02 159.275 493.499 160.349 492.718 161.977C491.937 163.604 490.895 165.492 489.593 167.641C488.356 169.724 486.891 171.97 485.199 174.379C483.506 176.723 481.618 178.871 479.535 180.824C477.516 182.777 475.303 184.405 472.894 185.707C470.55 187.009 468.076 187.66 465.472 187.66C462.542 187.66 460.166 187.107 458.343 186C456.52 184.828 455.088 183.331 454.046 181.508C453.005 179.62 452.289 177.569 451.898 175.355C451.572 173.077 451.41 170.798 451.41 168.52C451.41 167.543 451.442 166.436 451.507 165.199C451.637 163.962 451.768 162.66 451.898 161.293C452.093 159.926 452.223 158.559 452.289 157.191C452.419 155.824 452.484 154.522 452.484 153.285C452.484 151.202 452.158 149.802 451.507 149.086C450.856 148.305 450.27 147.914 449.749 147.914C448.708 147.914 447.503 148.533 446.136 149.77C444.834 150.941 443.434 152.504 441.937 154.457C440.505 156.41 439.007 158.624 437.445 161.098C435.947 163.507 434.515 165.915 433.148 168.324C431.846 170.733 430.609 173.044 429.437 175.258C428.33 177.406 427.451 179.197 426.8 180.629C425.498 183.363 424.196 185.186 422.894 186.098C421.592 187.074 420.257 187.562 418.89 187.562C417.002 187.562 415.472 187.009 414.3 185.902C413.193 184.73 412.64 183.103 412.64 181.02C412.64 180.564 412.705 179.685 412.835 178.383C412.966 177.016 413.128 175.421 413.324 173.598C413.519 171.71 413.714 169.691 413.91 167.543C414.105 165.395 414.3 163.279 414.496 161.195C414.691 159.047 414.854 157.061 414.984 155.238C415.114 153.415 415.179 151.885 415.179 150.648C415.179 149.021 415.114 147.458 414.984 145.961C414.854 144.464 414.593 143.552 414.203 143.227C413.617 143.422 412.575 144.659 411.078 146.938C409.58 149.151 407.66 153.09 405.316 158.754C404.99 159.47 404.502 160.023 403.851 160.414C403.2 160.805 402.516 161 401.8 161C400.693 161 399.815 160.642 399.164 159.926C398.512 159.145 398.187 158.266 398.187 157.289C398.187 156.833 398.285 156.345 398.48 155.824C401.41 148.858 404.144 143.747 406.683 140.492C409.287 137.172 411.859 135.512 414.398 135.512C415.895 135.512 417.165 135.902 418.206 136.684C419.248 137.4 420.062 138.376 420.648 139.613C421.299 140.85 421.755 142.217 422.015 143.715C422.341 145.212 422.503 146.742 422.503 148.305C422.503 149.477 422.406 151.299 422.21 153.773C422.08 156.247 421.885 158.917 421.624 161.781C421.364 164.581 421.104 167.38 420.843 170.18C420.648 172.979 420.453 175.323 420.257 177.211ZM499.359 175.258C500.726 177.146 502.484 178.676 504.632 179.848C506.781 180.954 509.417 181.508 512.542 181.508C515.733 181.508 518.63 180.759 521.234 179.262C523.838 177.699 526.214 175.681 528.363 173.207C530.511 170.733 532.432 167.966 534.124 164.906C535.817 161.846 537.347 158.786 538.714 155.727C539.04 155.01 539.496 154.49 540.081 154.164C540.667 153.773 541.318 153.578 542.035 153.578C543.141 153.578 544.02 153.969 544.671 154.75C545.387 155.531 545.746 156.378 545.746 157.289C545.746 157.615 545.713 157.908 545.648 158.168C545.583 158.363 545.485 158.591 545.355 158.852C540.863 168.747 535.947 176.202 530.609 181.215C525.335 186.228 519.346 188.799 512.64 188.93C508.343 188.93 504.632 188.083 501.507 186.391C498.382 184.763 495.811 182.647 493.792 180.043C491.774 177.374 490.277 174.379 489.3 171.059C488.324 167.738 487.835 164.418 487.835 161.098C487.835 157.777 488.226 154.717 489.007 151.918C489.854 149.118 491.025 146.677 492.523 144.594C494.085 142.51 495.908 140.883 497.992 139.711C500.14 138.539 502.484 137.953 505.023 137.953C506.52 137.953 507.985 138.279 509.417 138.93C510.915 139.516 512.249 140.395 513.421 141.566C514.593 142.673 515.537 144.04 516.253 145.668C516.97 147.296 517.328 149.151 517.328 151.234C517.328 153.904 516.872 156.41 515.96 158.754C515.049 161.098 513.779 163.279 512.152 165.297C510.589 167.315 508.701 169.171 506.488 170.863C504.274 172.556 501.898 174.021 499.359 175.258ZM496.429 168.91C498.447 168.064 500.27 166.99 501.898 165.688C503.591 164.385 505.023 162.953 506.195 161.391C507.367 159.828 508.278 158.201 508.929 156.508C509.58 154.75 509.906 152.992 509.906 151.234C509.906 149.281 509.417 147.816 508.441 146.84C507.464 145.798 506.325 145.277 505.023 145.277C503.265 145.277 501.768 145.766 500.531 146.742C499.294 147.719 498.285 148.988 497.503 150.551C496.722 152.113 496.136 153.871 495.746 155.824C495.42 157.712 495.257 159.6 495.257 161.488C495.257 162.66 495.355 163.897 495.55 165.199C495.811 166.501 496.104 167.738 496.429 168.91ZM549.066 145.863C548.805 147.621 548.48 149.281 548.089 150.844C547.699 152.341 547.308 153.676 546.917 154.848C546.592 155.954 546.299 156.866 546.039 157.582C545.778 158.298 545.615 158.689 545.55 158.754C544.899 160.251 543.76 161 542.132 161C541.221 161 540.374 160.674 539.593 160.023C538.812 159.307 538.421 158.428 538.421 157.387C538.421 156.996 538.486 156.703 538.617 156.508C538.747 156.312 538.942 155.922 539.203 155.336C539.463 154.75 539.789 153.773 540.179 152.406C540.57 151.039 541.058 148.923 541.644 146.059C540.537 146.059 539.398 146.026 538.226 145.961C537.054 145.896 535.98 145.668 535.003 145.277C533.962 144.887 533.115 144.268 532.464 143.422C531.813 142.576 531.488 141.404 531.488 139.906C531.488 138.799 531.813 137.302 532.464 135.414C533.05 133.526 533.864 131.671 534.906 129.848C535.947 128.025 537.119 126.462 538.421 125.16C539.723 123.793 541.025 123.109 542.328 123.109C543.825 123.109 545.029 123.663 545.941 124.77C546.917 125.876 547.666 127.243 548.187 128.871C548.708 130.434 549.066 132.094 549.261 133.852C549.522 135.609 549.652 137.139 549.652 138.441C550.759 138.441 551.833 138.441 552.874 138.441C553.981 138.376 555.023 138.344 555.999 138.344C559.71 138.344 562.542 139.158 564.496 140.785C566.449 142.413 567.425 145.082 567.425 148.793C567.425 150.29 567.328 151.853 567.132 153.48C566.937 155.108 566.709 156.801 566.449 158.559C566.188 160.251 565.96 161.944 565.765 163.637C565.57 165.329 565.472 166.99 565.472 168.617C565.472 170.961 565.798 172.914 566.449 174.477C567.1 175.974 567.914 177.178 568.89 178.09C569.867 179.001 570.908 179.652 572.015 180.043C573.122 180.368 574.131 180.531 575.042 180.531C577.842 180.531 580.479 179.62 582.953 177.797C585.427 175.974 587.705 173.793 589.789 171.254C591.872 168.65 593.727 165.915 595.355 163.051C597.048 160.186 598.447 157.68 599.554 155.531C599.88 154.945 600.335 154.49 600.921 154.164C601.507 153.839 602.126 153.676 602.777 153.676C603.949 153.676 604.86 154.066 605.511 154.848C606.162 155.564 606.488 156.378 606.488 157.289C606.488 157.94 606.358 158.526 606.097 159.047C604.6 161.716 602.842 164.743 600.824 168.129C598.871 171.449 596.624 174.574 594.085 177.504C591.546 180.434 588.682 182.908 585.492 184.926C582.367 186.944 578.916 187.953 575.14 187.953C572.796 187.953 570.583 187.497 568.499 186.586C566.416 185.74 564.593 184.503 563.031 182.875C561.533 181.182 560.329 179.132 559.417 176.723C558.506 174.249 558.05 171.482 558.05 168.422C558.05 165.167 558.376 161.944 559.027 158.754C559.678 155.499 560.003 152.406 560.003 149.477C560.003 148.24 559.71 147.328 559.124 146.742C558.604 146.091 557.399 145.766 555.511 145.766C554.6 145.766 553.591 145.766 552.484 145.766C551.442 145.766 550.303 145.798 549.066 145.863ZM542.523 138.637C542.523 138.181 542.49 137.595 542.425 136.879C542.425 136.098 542.36 135.349 542.23 134.633C542.165 133.917 542.035 133.298 541.839 132.777C541.709 132.257 541.546 131.996 541.351 131.996C541.156 131.996 540.895 132.257 540.57 132.777C540.309 133.233 540.016 133.819 539.691 134.535C539.365 135.186 539.072 135.902 538.812 136.684C538.552 137.465 538.356 138.116 538.226 138.637H542.523Z" fill="#F6543B"/>
<path d="M106.204 301.582C109.394 316.621 114.016 324.141 120.071 324.141C122.415 324.141 124.661 323.294 126.809 321.602C128.958 319.844 130.943 317.728 132.766 315.254C134.654 312.715 136.315 310.046 137.747 307.246C139.179 304.447 140.351 302.005 141.262 299.922C141.913 298.359 143.053 297.578 144.68 297.578C145.722 297.578 146.601 297.969 147.317 298.75C148.033 299.531 148.391 300.378 148.391 301.289C148.391 301.81 148.294 302.266 148.098 302.656C147.643 303.763 146.959 305.26 146.048 307.148C145.201 308.971 144.127 310.957 142.825 313.105C141.588 315.189 140.188 317.337 138.626 319.551C137.063 321.764 135.338 323.75 133.45 325.508C131.562 327.266 129.544 328.73 127.395 329.902C125.312 331.009 123.098 331.562 120.755 331.562C116.393 331.562 112.649 330.065 109.524 327.07C106.399 324.01 103.697 318.997 101.419 312.031C98.2937 318.672 95.1361 323.49 91.946 326.484C88.7559 329.479 85.3054 330.977 81.5945 330.977C79.6414 330.977 77.7533 330.651 75.9304 330C74.1075 329.414 72.5125 328.405 71.1453 326.973C69.7781 325.54 68.6713 323.717 67.825 321.504C66.9786 319.225 66.5554 316.458 66.5554 313.203C66.5554 308.711 67.3367 304.577 68.8992 300.801C70.4617 297.025 72.4799 293.802 74.9539 291.133C77.4278 288.398 80.1622 286.283 83.157 284.785C86.2169 283.288 89.2442 282.539 92.239 282.539C93.2156 282.539 94.0619 282.897 94.7781 283.613C95.4942 284.264 95.8523 285.111 95.8523 286.152C95.8523 287.064 95.5593 287.878 94.9734 288.594C94.3875 289.31 93.6062 289.733 92.6296 289.863C90.6765 290.124 88.5932 290.742 86.3796 291.719C84.1661 292.695 82.1153 294.128 80.2273 296.016C78.4044 297.839 76.8744 300.182 75.6375 303.047C74.4656 305.911 73.8796 309.329 73.8796 313.301C73.8796 316.556 74.5307 319.095 75.8328 320.918C77.2 322.741 79.1531 323.652 81.6921 323.652C82.7338 323.652 83.8406 323.392 85.0125 322.871C86.1843 322.285 87.4213 321.178 88.7234 319.551C90.0906 317.923 91.5554 315.612 93.1179 312.617C94.7455 309.622 96.5359 305.684 98.489 300.801C97.3822 295.072 96.3731 288.464 95.4617 280.977C94.5502 273.49 94.0945 265.124 94.0945 255.879C94.0945 251.842 94.2247 247.643 94.4851 243.281C94.7455 238.854 95.1687 234.557 95.7546 230.391C96.3406 226.159 97.1218 222.155 98.0984 218.379C99.075 214.603 100.247 211.283 101.614 208.418C103.046 205.553 104.706 203.307 106.594 201.68C108.483 199.987 110.631 199.141 113.04 199.141C115.188 199.141 117.011 199.727 118.509 200.898C120.006 202.07 121.21 203.698 122.122 205.781C123.098 207.865 123.815 210.371 124.27 213.301C124.726 216.23 124.954 219.453 124.954 222.969C124.954 230.521 124.303 238.073 123.001 245.625C121.699 253.177 120.071 260.404 118.118 267.305C116.23 274.206 114.212 280.586 112.063 286.445C109.915 292.305 107.962 297.35 106.204 301.582ZM117.63 222.871C117.63 221.243 117.565 219.486 117.434 217.598C117.369 215.71 117.141 213.952 116.751 212.324C116.425 210.632 115.969 209.232 115.384 208.125C114.798 207.018 114.016 206.465 113.04 206.465C111.412 206.465 109.882 207.897 108.45 210.762C107.083 213.626 105.878 217.402 104.837 222.09C103.795 226.712 102.949 231.986 102.298 237.91C101.712 243.77 101.419 249.694 101.419 255.684C101.419 261.413 101.647 267.142 102.102 272.871C102.558 278.6 103.079 283.711 103.665 288.203C105.553 283.19 107.343 278.047 109.036 272.773C110.729 267.435 112.193 261.999 113.43 256.465C114.733 250.931 115.742 245.365 116.458 239.766C117.239 234.102 117.63 228.47 117.63 222.871ZM153.079 319.258C154.446 321.146 156.204 322.676 158.352 323.848C160.501 324.954 163.137 325.508 166.262 325.508C169.453 325.508 172.35 324.759 174.954 323.262C177.558 321.699 179.934 319.681 182.083 317.207C184.231 314.733 186.152 311.966 187.844 308.906C189.537 305.846 191.067 302.786 192.434 299.727C192.76 299.01 193.216 298.49 193.802 298.164C194.387 297.773 195.038 297.578 195.755 297.578C196.861 297.578 197.74 297.969 198.391 298.75C199.108 299.531 199.466 300.378 199.466 301.289C199.466 301.615 199.433 301.908 199.368 302.168C199.303 302.363 199.205 302.591 199.075 302.852C194.583 312.747 189.667 320.202 184.329 325.215C179.055 330.228 173.066 332.799 166.36 332.93C162.063 332.93 158.352 332.083 155.227 330.391C152.102 328.763 149.531 326.647 147.512 324.043C145.494 321.374 143.997 318.379 143.02 315.059C142.044 311.738 141.555 308.418 141.555 305.098C141.555 301.777 141.946 298.717 142.727 295.918C143.574 293.118 144.746 290.677 146.243 288.594C147.805 286.51 149.628 284.883 151.712 283.711C153.86 282.539 156.204 281.953 158.743 281.953C160.24 281.953 161.705 282.279 163.137 282.93C164.635 283.516 165.969 284.395 167.141 285.566C168.313 286.673 169.257 288.04 169.973 289.668C170.69 291.296 171.048 293.151 171.048 295.234C171.048 297.904 170.592 300.41 169.68 302.754C168.769 305.098 167.499 307.279 165.872 309.297C164.309 311.315 162.421 313.171 160.208 314.863C157.994 316.556 155.618 318.021 153.079 319.258ZM150.149 312.91C152.167 312.064 153.99 310.99 155.618 309.688C157.311 308.385 158.743 306.953 159.915 305.391C161.087 303.828 161.998 302.201 162.649 300.508C163.3 298.75 163.626 296.992 163.626 295.234C163.626 293.281 163.137 291.816 162.161 290.84C161.184 289.798 160.045 289.277 158.743 289.277C156.985 289.277 155.488 289.766 154.251 290.742C153.014 291.719 152.005 292.988 151.223 294.551C150.442 296.113 149.856 297.871 149.466 299.824C149.14 301.712 148.977 303.6 148.977 305.488C148.977 306.66 149.075 307.897 149.27 309.199C149.531 310.501 149.824 311.738 150.149 312.91ZM248.196 319.258C249.563 321.146 251.321 322.676 253.469 323.848C255.618 324.954 258.255 325.508 261.38 325.508C264.57 325.508 267.467 324.759 270.071 323.262C272.675 321.699 275.052 319.681 277.2 317.207C279.348 314.733 281.269 311.966 282.962 308.906C284.654 305.846 286.184 302.786 287.552 299.727C287.877 299.01 288.333 298.49 288.919 298.164C289.505 297.773 290.156 297.578 290.872 297.578C291.979 297.578 292.858 297.969 293.509 298.75C294.225 299.531 294.583 300.378 294.583 301.289C294.583 301.615 294.55 301.908 294.485 302.168C294.42 302.363 294.322 302.591 294.192 302.852C289.7 312.747 284.785 320.202 279.446 325.215C274.173 330.228 268.183 332.799 261.477 332.93C257.18 332.93 253.469 332.083 250.344 330.391C247.219 328.763 244.648 326.647 242.63 324.043C240.611 321.374 239.114 318.379 238.137 315.059C237.161 311.738 236.673 308.418 236.673 305.098C236.673 301.777 237.063 298.717 237.844 295.918C238.691 293.118 239.863 290.677 241.36 288.594C242.923 286.51 244.746 284.883 246.829 283.711C248.977 282.539 251.321 281.953 253.86 281.953C255.358 281.953 256.822 282.279 258.255 282.93C259.752 283.516 261.087 284.395 262.259 285.566C263.43 286.673 264.374 288.04 265.091 289.668C265.807 291.296 266.165 293.151 266.165 295.234C266.165 297.904 265.709 300.41 264.798 302.754C263.886 305.098 262.617 307.279 260.989 309.297C259.427 311.315 257.538 313.171 255.325 314.863C253.111 316.556 250.735 318.021 248.196 319.258ZM245.266 312.91C247.285 312.064 249.108 310.99 250.735 309.688C252.428 308.385 253.86 306.953 255.032 305.391C256.204 303.828 257.115 302.201 257.766 300.508C258.417 298.75 258.743 296.992 258.743 295.234C258.743 293.281 258.255 291.816 257.278 290.84C256.302 289.798 255.162 289.277 253.86 289.277C252.102 289.277 250.605 289.766 249.368 290.742C248.131 291.719 247.122 292.988 246.341 294.551C245.559 296.113 244.973 297.871 244.583 299.824C244.257 301.712 244.094 303.6 244.094 305.488C244.094 306.66 244.192 307.897 244.387 309.199C244.648 310.501 244.941 311.738 245.266 312.91ZM298.489 293.867C298.098 294.909 297.61 296.081 297.024 297.383C296.503 298.685 295.885 300.052 295.169 301.484C294.583 302.591 293.964 303.47 293.313 304.121C292.727 304.707 291.946 305 290.969 305C289.863 305 288.984 304.674 288.333 304.023C287.682 303.307 287.356 302.493 287.356 301.582C287.356 301.257 287.389 300.996 287.454 300.801C287.519 300.54 287.682 300.15 287.942 299.629C289.635 296.374 290.872 293.542 291.653 291.133C292.499 288.659 293.183 286.087 293.704 283.418C293.248 281.921 292.923 280.651 292.727 279.609C292.532 278.568 292.434 277.493 292.434 276.387C292.434 274.238 292.89 272.513 293.802 271.211C294.713 269.844 295.983 269.16 297.61 269.16C299.108 269.16 300.279 269.811 301.126 271.113C302.037 272.415 302.493 274.01 302.493 275.898C302.493 276.94 302.395 277.982 302.2 279.023C302.005 280.065 301.744 281.367 301.419 282.93C302.916 286.641 304.413 289.928 305.911 292.793C307.408 295.658 308.743 298.294 309.915 300.703C311.087 303.047 312.031 305.26 312.747 307.344C313.528 309.427 313.919 311.51 313.919 313.594C313.919 316.328 313.365 318.932 312.259 321.406C311.152 323.88 309.329 325.964 306.79 327.656C307.115 327.721 307.441 327.754 307.766 327.754C308.092 327.754 308.417 327.754 308.743 327.754C312.454 327.754 315.872 326.908 318.997 325.215C322.122 323.522 324.921 321.341 327.395 318.672C329.934 315.938 332.18 312.943 334.134 309.688C336.087 306.367 337.779 303.079 339.212 299.824C339.863 298.327 340.774 297.578 341.946 297.578C343.053 297.578 343.899 297.969 344.485 298.75C345.136 299.531 345.462 300.378 345.462 301.289C345.462 301.81 345.364 302.298 345.169 302.754C344.453 304.512 343.509 306.53 342.337 308.809C341.23 311.022 339.863 313.333 338.235 315.742C336.673 318.086 334.85 320.397 332.766 322.676C330.683 324.954 328.339 327.005 325.735 328.828C323.196 330.586 320.397 331.986 317.337 333.027C314.277 334.134 310.924 334.688 307.278 334.688C302.916 334.688 298.847 333.906 295.071 332.344C291.36 330.846 288.333 328.34 285.989 324.824C285.598 324.238 285.403 323.62 285.403 322.969C285.403 321.992 285.761 321.146 286.477 320.43C287.259 319.648 288.137 319.258 289.114 319.258C290.156 319.258 291.035 319.616 291.751 320.332C291.816 320.462 292.044 320.69 292.434 321.016C292.825 321.276 293.281 321.602 293.802 321.992C294.387 322.318 295.038 322.611 295.755 322.871C296.536 323.132 297.317 323.262 298.098 323.262C299.661 323.262 300.963 322.936 302.005 322.285C303.111 321.634 303.99 320.853 304.641 319.941C305.292 318.965 305.748 317.956 306.009 316.914C306.334 315.807 306.497 314.863 306.497 314.082C306.497 312.454 306.236 310.827 305.716 309.199C305.195 307.572 304.511 305.944 303.665 304.316C302.884 302.689 302.005 301.029 301.028 299.336C300.117 297.578 299.27 295.755 298.489 293.867ZM417.532 232.246C417.532 233.288 417.174 234.134 416.458 234.785C415.742 235.371 414.863 235.664 413.821 235.664H364.309V236.738C364.309 240.71 364.016 244.941 363.43 249.434C362.844 253.926 362.031 258.418 360.989 262.91C360.012 267.337 358.873 271.667 357.571 275.898C356.334 280.13 355.032 284.036 353.665 287.617C352.363 291.198 351.061 294.323 349.759 296.992C348.456 299.596 347.285 301.549 346.243 302.852C347.089 305.846 348.098 308.646 349.27 311.25C350.442 313.789 351.744 316.035 353.177 317.988C354.674 319.876 356.269 321.374 357.962 322.48C359.654 323.587 361.477 324.141 363.43 324.141C365.709 324.141 367.955 323.197 370.169 321.309C372.447 319.355 374.531 317.077 376.419 314.473C378.372 311.803 380.065 309.134 381.497 306.465C382.994 303.73 384.068 301.549 384.719 299.922C385.371 298.359 386.51 297.578 388.137 297.578C389.244 297.578 390.123 297.969 390.774 298.75C391.49 299.531 391.848 300.378 391.848 301.289C391.848 301.745 391.751 302.201 391.555 302.656C391.36 303.112 390.872 304.154 390.091 305.781C389.374 307.409 388.398 309.297 387.161 311.445C385.989 313.594 384.589 315.872 382.962 318.281C381.399 320.625 379.609 322.773 377.591 324.727C375.637 326.68 373.522 328.307 371.243 329.609C368.964 330.911 366.555 331.562 364.016 331.562C359.524 331.562 355.488 330.098 351.907 327.168C348.326 324.238 345.266 320.137 342.727 314.863C340.253 309.59 338.365 303.34 337.063 296.113C335.761 288.887 335.11 280.977 335.11 272.383C335.11 270.234 335.143 267.728 335.208 264.863C335.273 261.934 335.403 258.874 335.598 255.684C335.794 252.428 336.087 249.108 336.477 245.723C336.868 242.272 337.389 238.919 338.04 235.664H302.981C301.94 235.664 301.061 235.371 300.344 234.785C299.628 234.134 299.27 233.288 299.27 232.246C299.27 231.204 299.628 230.391 300.344 229.805C301.061 229.154 301.94 228.828 302.981 228.828H339.7C340.351 226.484 341.1 224.336 341.946 222.383C342.858 220.43 343.867 218.737 344.973 217.305C346.145 215.872 347.415 214.766 348.782 213.984C350.214 213.138 351.777 212.715 353.469 212.715C355.097 212.715 356.497 213.138 357.669 213.984C358.906 214.766 359.947 215.872 360.794 217.305C361.64 218.737 362.291 220.43 362.747 222.383C363.268 224.336 363.658 226.484 363.919 228.828H413.821C414.863 228.828 415.742 229.154 416.458 229.805C417.174 230.391 417.532 231.204 417.532 232.246ZM343.997 293.086C345.95 288.789 347.708 284.167 349.27 279.219C350.898 274.206 352.265 269.16 353.372 264.082C354.544 259.004 355.423 254.023 356.009 249.141C356.66 244.258 356.985 239.766 356.985 235.664H345.462C344.55 239.701 343.802 244.714 343.216 250.703C342.695 256.628 342.434 263.854 342.434 272.383C342.434 277.135 342.565 281.139 342.825 284.395C343.085 287.585 343.476 290.482 343.997 293.086ZM353.079 220.039C352.493 220.039 351.647 220.69 350.54 221.992C349.433 223.229 348.326 225.508 347.219 228.828H356.594C356.269 226.094 355.781 223.945 355.13 222.383C354.544 220.82 353.86 220.039 353.079 220.039ZM345.559 300.117V300.215V300.117ZM417.532 319.062C415.253 322.773 412.584 325.703 409.524 327.852C406.529 330 403.502 331.074 400.442 331.074C397.968 331.074 395.755 330.618 393.802 329.707C391.848 328.796 390.156 327.526 388.723 325.898C387.291 324.206 386.184 322.188 385.403 319.844C384.687 317.5 384.329 314.863 384.329 311.934C384.329 307.376 384.752 303.34 385.598 299.824C386.51 296.309 387.486 293.379 388.528 291.035C389.57 288.626 390.546 286.803 391.458 285.566C392.369 284.329 392.825 283.711 392.825 283.711C393.15 283.32 393.541 283.027 393.997 282.832C394.518 282.637 395.038 282.539 395.559 282.539C396.601 282.539 397.447 282.93 398.098 283.711C398.815 284.427 399.173 285.273 399.173 286.25C399.173 286.641 399.075 287.031 398.88 287.422C398.749 287.812 398.587 288.203 398.391 288.594C398.066 289.18 397.545 290.091 396.829 291.328C396.113 292.5 395.364 294.062 394.583 296.016C393.802 297.969 393.118 300.28 392.532 302.949C391.946 305.553 391.653 308.548 391.653 311.934C391.653 315.775 392.402 318.704 393.899 320.723C395.462 322.676 397.643 323.652 400.442 323.652C401.614 323.652 402.949 323.294 404.446 322.578C406.009 321.797 407.506 320.625 408.938 319.062C410.436 317.5 411.738 315.514 412.844 313.105C413.951 310.697 414.667 307.865 414.993 304.609L416.458 287.812C416.588 286.836 417.011 286.022 417.727 285.371C418.443 284.72 419.29 284.395 420.266 284.395C421.373 284.395 422.252 284.818 422.903 285.664C423.554 286.445 423.88 287.357 423.88 288.398L422.61 304.609C422.48 305.977 422.512 307.767 422.708 309.98C422.968 312.194 423.456 314.375 424.173 316.523C424.889 318.672 425.963 320.527 427.395 322.09C428.828 323.587 430.716 324.336 433.059 324.336C434.752 324.336 436.412 323.913 438.04 323.066C439.667 322.155 441.23 320.983 442.727 319.551C444.225 318.118 445.592 316.523 446.829 314.766C448.131 312.943 449.303 311.12 450.344 309.297C451.451 307.474 452.395 305.749 453.177 304.121C453.958 302.428 454.609 300.996 455.13 299.824C455.455 299.108 455.911 298.555 456.497 298.164C457.083 297.773 457.734 297.578 458.45 297.578C459.622 297.578 460.533 297.969 461.184 298.75C461.835 299.531 462.161 300.378 462.161 301.289C462.161 301.81 462.063 302.298 461.868 302.754C461.608 303.275 461.087 304.382 460.305 306.074C459.589 307.702 458.613 309.59 457.376 311.738C456.204 313.822 454.772 316.035 453.079 318.379C451.386 320.723 449.498 322.904 447.415 324.922C445.331 326.875 443.053 328.503 440.579 329.805C438.17 331.042 435.566 331.66 432.766 331.66C428.925 331.66 425.735 330.586 423.196 328.438C420.657 326.224 418.769 323.099 417.532 319.062ZM493.118 301.582C496.308 316.621 500.93 324.141 506.985 324.141C509.329 324.141 511.575 323.294 513.723 321.602C515.872 319.844 517.858 317.728 519.68 315.254C521.568 312.715 523.229 310.046 524.661 307.246C526.093 304.447 527.265 302.005 528.177 299.922C528.828 298.359 529.967 297.578 531.594 297.578C532.636 297.578 533.515 297.969 534.231 298.75C534.947 299.531 535.305 300.378 535.305 301.289C535.305 301.81 535.208 302.266 535.012 302.656C534.557 303.763 533.873 305.26 532.962 307.148C532.115 308.971 531.041 310.957 529.739 313.105C528.502 315.189 527.102 317.337 525.54 319.551C523.977 321.764 522.252 323.75 520.364 325.508C518.476 327.266 516.458 328.73 514.309 329.902C512.226 331.009 510.012 331.562 507.669 331.562C503.307 331.562 499.563 330.065 496.438 327.07C493.313 324.01 490.611 318.997 488.333 312.031C485.208 318.672 482.05 323.49 478.86 326.484C475.67 329.479 472.219 330.977 468.509 330.977C466.555 330.977 464.667 330.651 462.844 330C461.022 329.414 459.427 328.405 458.059 326.973C456.692 325.54 455.585 323.717 454.739 321.504C453.893 319.225 453.469 316.458 453.469 313.203C453.469 308.711 454.251 304.577 455.813 300.801C457.376 297.025 459.394 293.802 461.868 291.133C464.342 288.398 467.076 286.283 470.071 284.785C473.131 283.288 476.158 282.539 479.153 282.539C480.13 282.539 480.976 282.897 481.692 283.613C482.408 284.264 482.766 285.111 482.766 286.152C482.766 287.064 482.473 287.878 481.887 288.594C481.302 289.31 480.52 289.733 479.544 289.863C477.591 290.124 475.507 290.742 473.294 291.719C471.08 292.695 469.029 294.128 467.141 296.016C465.318 297.839 463.788 300.182 462.552 303.047C461.38 305.911 460.794 309.329 460.794 313.301C460.794 316.556 461.445 319.095 462.747 320.918C464.114 322.741 466.067 323.652 468.606 323.652C469.648 323.652 470.755 323.392 471.927 322.871C473.098 322.285 474.335 321.178 475.637 319.551C477.005 317.923 478.469 315.612 480.032 312.617C481.66 309.622 483.45 305.684 485.403 300.801C484.296 295.072 483.287 288.464 482.376 280.977C481.464 273.49 481.009 265.124 481.009 255.879C481.009 251.842 481.139 247.643 481.399 243.281C481.66 238.854 482.083 234.557 482.669 230.391C483.255 226.159 484.036 222.155 485.012 218.379C485.989 214.603 487.161 211.283 488.528 208.418C489.96 205.553 491.621 203.307 493.509 201.68C495.397 199.987 497.545 199.141 499.954 199.141C502.102 199.141 503.925 199.727 505.423 200.898C506.92 202.07 508.124 203.698 509.036 205.781C510.012 207.865 510.729 210.371 511.184 213.301C511.64 216.23 511.868 219.453 511.868 222.969C511.868 230.521 511.217 238.073 509.915 245.625C508.613 253.177 506.985 260.404 505.032 267.305C503.144 274.206 501.126 280.586 498.977 286.445C496.829 292.305 494.876 297.35 493.118 301.582ZM504.544 222.871C504.544 221.243 504.479 219.486 504.348 217.598C504.283 215.71 504.055 213.952 503.665 212.324C503.339 210.632 502.884 209.232 502.298 208.125C501.712 207.018 500.93 206.465 499.954 206.465C498.326 206.465 496.796 207.897 495.364 210.762C493.997 213.626 492.792 217.402 491.751 222.09C490.709 226.712 489.863 231.986 489.212 237.91C488.626 243.77 488.333 249.694 488.333 255.684C488.333 261.413 488.561 267.142 489.016 272.871C489.472 278.6 489.993 283.711 490.579 288.203C492.467 283.19 494.257 278.047 495.95 272.773C497.643 267.435 499.108 261.999 500.344 256.465C501.647 250.931 502.656 245.365 503.372 239.766C504.153 234.102 504.544 228.47 504.544 222.871ZM573.294 319.258C571.666 319.258 570.234 319.128 568.997 318.867C568.02 320.82 566.848 322.643 565.481 324.336C564.114 325.964 562.519 327.396 560.696 328.633C558.938 329.87 556.953 330.846 554.739 331.562C552.525 332.279 550.117 332.637 547.512 332.637C544.453 332.637 541.653 332.083 539.114 330.977C536.575 329.935 534.361 328.47 532.473 326.582C530.585 324.629 529.121 322.318 528.079 319.648C527.037 316.914 526.516 313.919 526.516 310.664C526.516 306.497 527.265 302.884 528.762 299.824C530.26 296.699 531.985 294.128 533.938 292.109C535.891 290.026 537.844 288.496 539.798 287.52C541.751 286.478 543.216 285.957 544.192 285.957C545.299 285.957 546.113 286.25 546.634 286.836C547.219 287.422 547.512 288.203 547.512 289.18C547.512 290.286 547.154 291.133 546.438 291.719C545.787 292.24 544.941 292.76 543.899 293.281C542.858 293.802 541.751 294.551 540.579 295.527C539.407 296.439 538.3 297.611 537.259 299.043C536.282 300.475 535.468 302.168 534.817 304.121C534.166 306.074 533.841 308.255 533.841 310.664C533.841 312.812 534.166 314.831 534.817 316.719C535.468 318.542 536.412 320.137 537.649 321.504C538.886 322.806 540.351 323.848 542.044 324.629C543.736 325.345 545.624 325.703 547.708 325.703C551.419 325.703 554.479 324.857 556.887 323.164C559.361 321.406 561.249 319.193 562.552 316.523C558.71 314.505 555.553 311.641 553.079 307.93C550.605 304.219 549.368 300.052 549.368 295.43C549.368 291.719 550.247 288.691 552.005 286.348C553.828 284.004 556.204 282.832 559.134 282.832C560.891 282.832 562.552 283.255 564.114 284.102C565.677 284.948 567.044 286.283 568.216 288.105C569.453 289.928 570.429 292.272 571.145 295.137C571.861 298.001 572.219 301.419 572.219 305.391C572.219 307.474 571.959 309.655 571.438 311.934C571.829 311.999 572.219 312.031 572.61 312.031C573.001 312.031 573.424 312.031 573.88 312.031C576.093 312.031 578.079 311.771 579.837 311.25C581.594 310.729 583.19 309.948 584.622 308.906C586.054 307.865 587.324 306.53 588.43 304.902C589.602 303.275 590.709 301.387 591.751 299.238C591.946 298.848 592.369 298.49 593.02 298.164C593.671 297.773 594.322 297.578 594.973 297.578C595.82 297.578 596.601 297.936 597.317 298.652C598.098 299.303 598.489 300.182 598.489 301.289C598.489 301.81 598.359 302.396 598.098 303.047C597.838 303.633 597.578 304.186 597.317 304.707C596.21 306.66 594.908 308.548 593.411 310.371C591.979 312.129 590.253 313.691 588.235 315.059C586.282 316.361 584.068 317.402 581.594 318.184C579.121 318.965 576.354 319.323 573.294 319.258ZM556.594 294.648C556.594 295.885 556.757 297.188 557.083 298.555C557.408 299.922 557.897 301.289 558.548 302.656C559.264 303.958 560.11 305.228 561.087 306.465C562.128 307.637 563.333 308.646 564.7 309.492C564.895 308.125 564.993 306.79 564.993 305.488C564.993 303.73 564.863 301.94 564.602 300.117C564.342 298.294 563.951 296.634 563.43 295.137C562.975 293.574 562.389 292.337 561.673 291.426C560.956 290.449 560.11 289.961 559.134 289.961C558.743 289.961 558.222 290.254 557.571 290.84C556.92 291.426 556.594 292.695 556.594 294.648ZM602.395 293.867C602.005 294.909 601.516 296.081 600.93 297.383C600.41 298.685 599.791 300.052 599.075 301.484C598.489 302.591 597.871 303.47 597.219 304.121C596.634 304.707 595.852 305 594.876 305C593.769 305 592.89 304.674 592.239 304.023C591.588 303.307 591.262 302.493 591.262 301.582C591.262 301.257 591.295 300.996 591.36 300.801C591.425 300.54 591.588 300.15 591.848 299.629C593.541 296.374 594.778 293.542 595.559 291.133C596.406 288.659 597.089 286.087 597.61 283.418C597.154 281.921 596.829 280.651 596.634 279.609C596.438 278.568 596.341 277.493 596.341 276.387C596.341 274.238 596.796 272.513 597.708 271.211C598.619 269.844 599.889 269.16 601.516 269.16C603.014 269.16 604.186 269.811 605.032 271.113C605.943 272.415 606.399 274.01 606.399 275.898C606.399 276.94 606.302 277.982 606.106 279.023C605.911 280.065 605.65 281.367 605.325 282.93C606.822 286.641 608.32 289.928 609.817 292.793C611.315 295.658 612.649 298.294 613.821 300.703C614.993 303.047 615.937 305.26 616.653 307.344C617.434 309.427 617.825 311.51 617.825 313.594C617.825 316.328 617.272 318.932 616.165 321.406C615.058 323.88 613.235 325.964 610.696 327.656C611.022 327.721 611.347 327.754 611.673 327.754C611.998 327.754 612.324 327.754 612.649 327.754C616.36 327.754 619.778 326.908 622.903 325.215C626.028 323.522 628.828 321.341 631.302 318.672C633.841 315.938 636.087 312.943 638.04 309.688C639.993 306.367 641.686 303.079 643.118 299.824C643.769 298.327 644.68 297.578 645.852 297.578C646.959 297.578 647.805 297.969 648.391 298.75C649.042 299.531 649.368 300.378 649.368 301.289C649.368 301.81 649.27 302.298 649.075 302.754C648.359 304.512 647.415 306.53 646.243 308.809C645.136 311.022 643.769 313.333 642.141 315.742C640.579 318.086 638.756 320.397 636.673 322.676C634.589 324.954 632.246 327.005 629.641 328.828C627.102 330.586 624.303 331.986 621.243 333.027C618.183 334.134 614.83 334.688 611.184 334.688C606.822 334.688 602.753 333.906 598.977 332.344C595.266 330.846 592.239 328.34 589.895 324.824C589.505 324.238 589.309 323.62 589.309 322.969C589.309 321.992 589.667 321.146 590.384 320.43C591.165 319.648 592.044 319.258 593.02 319.258C594.062 319.258 594.941 319.616 595.657 320.332C595.722 320.462 595.95 320.69 596.341 321.016C596.731 321.276 597.187 321.602 597.708 321.992C598.294 322.318 598.945 322.611 599.661 322.871C600.442 323.132 601.223 323.262 602.005 323.262C603.567 323.262 604.869 322.936 605.911 322.285C607.018 321.634 607.897 320.853 608.548 319.941C609.199 318.965 609.654 317.956 609.915 316.914C610.24 315.807 610.403 314.863 610.403 314.082C610.403 312.454 610.143 310.827 609.622 309.199C609.101 307.572 608.417 305.944 607.571 304.316C606.79 302.689 605.911 301.029 604.934 299.336C604.023 297.578 603.177 295.755 602.395 293.867Z" fill="#F6543B"/>
</svg>
