<svg width="596" height="154" viewBox="0 0 596 154" fill="none" xmlns="http://www.w3.org/2000/svg">
<path d="M174.523 51.6133C174.523 59.4909 173.026 66.5547 170.031 72.8047C167.036 78.9896 162.805 84.263 157.336 88.625C151.867 92.9219 145.324 96.2422 137.707 98.5859C130.09 100.865 121.691 102.004 112.512 102.004C111.405 102.004 110.428 101.711 109.582 101.125C108.801 100.474 108.41 99.5299 108.41 98.293C108.41 97.3164 108.768 96.4701 109.484 95.7539C110.201 95.0378 111.079 94.6797 112.121 94.6797C120.324 94.6797 127.811 93.7357 134.582 91.8477C141.353 89.9596 147.147 87.1927 151.965 83.5469C156.783 79.8359 160.526 75.3112 163.195 69.9727C165.865 64.6341 167.199 58.5143 167.199 51.6133C167.199 44.582 165.637 38.332 162.512 32.8633C159.452 27.3945 155.122 22.7721 149.523 18.9961C143.99 15.2201 137.349 12.3555 129.602 10.4023C121.919 8.44922 113.456 7.47266 104.211 7.47266C95.487 7.47266 87.0234 8.1888 78.8203 9.62109C70.6823 11.0534 63.0326 13.0716 55.8711 15.6758C48.7096 18.2799 42.1667 21.4049 36.2422 25.0508C30.3828 28.6966 25.3372 32.7005 21.1055 37.0625C16.9388 41.4245 13.6836 46.112 11.3398 51.125C8.99609 56.0729 7.82422 61.2161 7.82422 66.5547C7.82422 71.2422 8.63802 75.3438 10.2656 78.8594C11.8932 82.375 14.0417 85.3372 16.7109 87.7461C19.4453 90.0898 22.5703 91.8477 26.0859 93.0195C29.6016 94.1914 33.2799 94.7773 37.1211 94.7773C41.6784 94.7773 45.7148 94.2891 49.2305 93.3125C52.8112 92.3359 55.806 91.2617 58.2148 90.0898C60.6888 88.918 62.5768 87.8438 63.8789 86.8672C65.181 85.8255 65.8971 85.2396 66.0273 85.1094C66.7435 84.3932 67.5898 84.0352 68.5664 84.0352C69.543 84.0352 70.3893 84.4258 71.1055 85.207C71.8867 85.9232 72.2773 86.7695 72.2773 87.7461C72.2773 88.8529 71.8867 89.7318 71.1055 90.3828C70.9753 90.513 70.1289 91.1966 68.5664 92.4336C67.069 93.6706 64.8555 95.0378 61.9258 96.5352C59.0612 97.9674 55.5456 99.2695 51.3789 100.441C47.2122 101.613 42.4596 102.199 37.1211 102.199C32.2383 102.199 27.5508 101.385 23.0586 99.7578C18.6315 98.1302 14.7253 95.7865 11.3398 92.7266C8.01953 89.6016 5.35026 85.8581 3.33203 81.4961C1.37891 77.069 0.402344 72.0885 0.402344 66.5547C0.402344 60.5 1.63932 54.6732 4.11328 49.0742C6.65234 43.4102 10.168 38.1367 14.6602 33.2539C19.2174 28.306 24.6536 23.8138 30.9688 19.7773C37.2839 15.6758 44.2826 12.1927 51.9648 9.32812C59.6471 6.39844 67.8828 4.15234 76.6719 2.58984C85.4609 0.96224 94.5755 0.148438 104.016 0.148438C114.367 0.148438 123.872 1.32031 132.531 3.66406C141.19 6.00781 148.612 9.39323 154.797 13.8203C161.047 18.2474 165.897 23.651 169.348 30.0312C172.798 36.3464 174.523 43.5404 174.523 51.6133ZM116.516 28.3711C117.492 28.3711 118.339 28.7292 119.055 29.4453C119.836 30.0964 120.227 30.9753 120.227 32.082C120.227 32.7331 120.031 33.319 119.641 33.8398C119.315 34.3607 118.892 34.849 118.371 35.3047C114.725 38.1693 111.796 41.2617 109.582 44.582C107.434 47.9023 105.773 51.4831 104.602 55.3242C103.495 59.1003 102.746 63.1367 102.355 67.4336C102.03 71.7305 101.867 76.2227 101.867 80.9102V93.2148C101.867 101.288 101.151 108.97 99.7188 116.262C98.2865 123.488 95.8451 129.836 92.3945 135.305C89.0091 140.773 84.4518 145.103 78.7227 148.293C72.9935 151.548 65.7995 153.176 57.1406 153.176C53.2344 153.176 49.3932 152.688 45.6172 151.711C41.9062 150.799 38.3906 149.465 35.0703 147.707C31.75 145.884 28.6901 143.671 25.8906 141.066C23.0911 138.462 20.6823 135.533 18.6641 132.277C18.5339 132.017 18.4036 131.724 18.2734 131.398C18.1432 131.008 18.0781 130.65 18.0781 130.324C18.0781 129.413 18.4036 128.599 19.0547 127.883C19.7708 127.102 20.6823 126.711 21.7891 126.711C22.4401 126.711 23.026 126.906 23.5469 127.297C24.1328 127.622 24.6211 128.046 25.0117 128.566C29.1784 134.361 33.8984 138.723 39.1719 141.652C44.4453 144.517 50.4349 145.949 57.1406 145.949C64.8229 145.949 71.0729 144.549 75.8906 141.75C80.7734 138.885 84.582 135.012 87.3164 130.129C90.1159 125.181 92.0039 119.419 92.9805 112.844C94.0221 106.268 94.543 99.2695 94.543 91.8477V79.4453C94.543 75.0833 94.7383 70.5911 95.1289 65.9688C95.5195 61.2812 96.3984 56.724 97.7656 52.2969C99.1979 47.8047 101.216 43.5729 103.82 39.6016C106.49 35.5651 110.07 32.0169 114.562 28.957C114.823 28.8268 115.148 28.6966 115.539 28.5664C115.93 28.4362 116.255 28.3711 116.516 28.3711ZM236.828 120.949C236.112 122.447 235.201 124.237 234.094 126.32C233.052 128.339 231.848 130.454 230.48 132.668C229.113 134.882 227.583 137.095 225.891 139.309C224.198 141.457 222.342 143.41 220.324 145.168C218.371 146.861 216.255 148.228 213.977 149.27C211.763 150.376 209.387 150.93 206.848 150.93C202.941 150.93 199.589 149.725 196.789 147.316C193.99 144.908 191.613 141.75 189.66 137.844C187.707 133.938 186.112 129.51 184.875 124.562C183.703 119.549 182.792 114.471 182.141 109.328C181.49 104.12 181.034 99.0742 180.773 94.1914C180.578 89.3086 180.48 84.9792 180.48 81.2031C180.48 75.7344 180.643 70.0703 180.969 64.2109C181.359 58.3516 181.945 52.6224 182.727 47.0234C183.508 41.4245 184.484 36.1185 185.656 31.1055C186.893 26.0924 188.326 21.6979 189.953 17.9219C191.646 14.1458 193.566 11.151 195.715 8.9375C197.863 6.72396 200.305 5.61719 203.039 5.61719C205.188 5.61719 207.108 6.13802 208.801 7.17969C210.559 8.15625 212.023 9.78385 213.195 12.0625C214.367 14.3411 215.279 17.3034 215.93 20.9492C216.581 24.5951 216.906 29.0547 216.906 34.3281C216.906 40.8385 216.223 47.5768 214.855 54.543C213.488 61.444 211.633 68.4102 209.289 75.4414C206.945 82.4727 204.178 89.5039 200.988 96.5352C197.798 103.501 194.38 110.305 190.734 116.945C192.362 125.214 194.543 131.724 197.277 136.477C200.012 141.164 203.299 143.508 207.141 143.508C209.745 143.508 212.251 142.499 214.66 140.48C217.069 138.397 219.283 135.956 221.301 133.156C223.319 130.357 225.077 127.525 226.574 124.66C228.137 121.73 229.341 119.387 230.188 117.629C230.513 116.978 230.969 116.49 231.555 116.164C232.141 115.773 232.792 115.578 233.508 115.578C234.615 115.578 235.493 115.969 236.145 116.75C236.861 117.531 237.219 118.41 237.219 119.387C237.219 119.777 237.089 120.298 236.828 120.949ZM187.902 81.6914C187.902 85.8581 188 89.862 188.195 93.7031C188.391 97.5443 188.651 101.223 188.977 104.738C191.711 99.4648 194.315 93.8659 196.789 87.9414C199.263 81.9518 201.444 75.9297 203.332 69.875C205.22 63.7552 206.717 57.7005 207.824 51.7109C208.996 45.6562 209.582 39.8945 209.582 34.4258C209.582 26.7435 208.964 21.2422 207.727 17.9219C206.49 14.6016 204.829 12.9414 202.746 12.9414C201.379 12.9414 200.044 13.8854 198.742 15.7734C197.505 17.6615 196.333 20.2331 195.227 23.4883C194.12 26.7435 193.111 30.5846 192.199 35.0117C191.288 39.4388 190.507 44.1914 189.855 49.2695C189.27 54.3477 188.781 59.6536 188.391 65.1875C188.065 70.7214 187.902 76.2227 187.902 81.6914ZM305.773 120.754C305.513 121.275 304.96 122.382 304.113 124.074C303.332 125.702 302.29 127.59 300.988 129.738C299.751 131.887 298.286 134.133 296.594 136.477C294.901 138.82 293.013 140.969 290.93 142.922C288.846 144.875 286.6 146.503 284.191 147.805C281.783 149.042 279.243 149.66 276.574 149.66C272.798 149.66 269.608 148.456 267.004 146.047C264.465 143.638 262.609 140.611 261.438 136.965C259.224 140.676 256.587 143.638 253.527 145.852C250.467 148 247.408 149.074 244.348 149.074C241.939 149.074 239.758 148.651 237.805 147.805C235.852 146.893 234.191 145.656 232.824 144.094C231.457 142.466 230.383 140.578 229.602 138.43C228.885 136.281 228.527 133.938 228.527 131.398C228.527 126.32 229.374 121.861 231.066 118.02C232.824 114.113 235.038 110.858 237.707 108.254C240.376 105.65 243.306 103.697 246.496 102.395C249.751 101.092 252.876 100.441 255.871 100.441C257.889 100.441 259.745 100.734 261.438 101.32C263.13 101.841 264.562 102.427 265.734 103.078C266.971 103.729 267.915 104.348 268.566 104.934C269.217 105.454 269.576 105.747 269.641 105.812C270.357 106.659 270.715 107.538 270.715 108.449C270.715 109.426 270.357 110.305 269.641 111.086C268.924 111.802 268.078 112.16 267.102 112.16C266.06 112.16 265.181 111.802 264.465 111.086C264.335 110.956 264.042 110.728 263.586 110.402C263.13 110.012 262.512 109.621 261.73 109.23C260.949 108.84 260.005 108.514 258.898 108.254C257.857 107.928 256.652 107.766 255.285 107.766C253.267 107.766 251.118 108.221 248.84 109.133C246.561 110.044 244.478 111.477 242.59 113.43C240.702 115.318 239.107 117.727 237.805 120.656C236.568 123.521 235.949 126.939 235.949 130.91C235.949 132.147 236.079 133.417 236.34 134.719C236.6 135.956 237.056 137.095 237.707 138.137C238.358 139.178 239.237 140.025 240.344 140.676C241.451 141.327 242.818 141.652 244.445 141.652C245.617 141.652 246.952 141.262 248.449 140.48C250.012 139.699 251.477 138.495 252.844 136.867C254.276 135.24 255.546 133.189 256.652 130.715C257.824 128.241 258.638 125.311 259.094 121.926C259.224 121.014 259.647 120.266 260.363 119.68C261.079 119.029 261.926 118.703 262.902 118.703C263.814 118.703 264.595 119.061 265.246 119.777C265.962 120.493 266.353 121.307 266.418 122.219C266.483 123.456 266.613 125.214 266.809 127.492C267.004 129.706 267.427 131.919 268.078 134.133C268.794 136.346 269.836 138.267 271.203 139.895C272.57 141.522 274.458 142.336 276.867 142.336C278.43 142.336 279.96 141.913 281.457 141.066C283.02 140.22 284.517 139.113 285.949 137.746C287.447 136.314 288.846 134.719 290.148 132.961C291.516 131.138 292.753 129.315 293.859 127.492C294.966 125.669 295.943 123.911 296.789 122.219C297.635 120.526 298.352 119.061 298.938 117.824C299.263 117.108 299.719 116.555 300.305 116.164C300.956 115.773 301.639 115.578 302.355 115.578C303.462 115.578 304.341 116.001 304.992 116.848C305.708 117.629 306.066 118.475 306.066 119.387C306.066 119.842 305.969 120.298 305.773 120.754ZM320.715 139.211C321.757 137.062 322.961 134.719 324.328 132.18C325.695 129.576 327.16 126.971 328.723 124.367C330.285 121.698 331.913 119.061 333.605 116.457C335.363 113.853 337.186 111.379 339.074 109.035C340.962 106.757 342.85 105.129 344.738 104.152C346.691 103.111 348.514 102.59 350.207 102.59C353.592 102.59 356.099 103.827 357.727 106.301C359.354 108.775 360.168 111.835 360.168 115.48C360.168 116.327 360.103 117.368 359.973 118.605C359.908 119.777 359.81 121.047 359.68 122.414C359.615 123.781 359.517 125.181 359.387 126.613C359.322 127.98 359.289 129.283 359.289 130.52C359.289 132.082 359.354 133.579 359.484 135.012C359.68 136.444 360.005 137.714 360.461 138.82C360.917 139.862 361.568 140.708 362.414 141.359C363.26 141.945 364.367 142.238 365.734 142.238C368.208 142.238 370.617 141.294 372.961 139.406C375.305 137.453 377.453 135.174 379.406 132.57C381.424 129.901 383.15 127.199 384.582 124.465C386.079 121.73 387.186 119.517 387.902 117.824C388.228 117.108 388.684 116.555 389.27 116.164C389.921 115.773 390.604 115.578 391.32 115.578C392.427 115.578 393.306 116.001 393.957 116.848C394.673 117.629 395.031 118.475 395.031 119.387C395.031 119.842 394.934 120.298 394.738 120.754C394.478 121.275 393.957 122.349 393.176 123.977C392.395 125.604 391.353 127.492 390.051 129.641C388.814 131.724 387.349 133.97 385.656 136.379C383.964 138.723 382.076 140.871 379.992 142.824C377.974 144.777 375.76 146.405 373.352 147.707C371.008 149.009 368.534 149.66 365.93 149.66C363 149.66 360.624 149.107 358.801 148C356.978 146.828 355.546 145.331 354.504 143.508C353.462 141.62 352.746 139.569 352.355 137.355C352.03 135.077 351.867 132.798 351.867 130.52C351.867 129.543 351.9 128.436 351.965 127.199C352.095 125.962 352.225 124.66 352.355 123.293C352.551 121.926 352.681 120.559 352.746 119.191C352.876 117.824 352.941 116.522 352.941 115.285C352.941 113.202 352.616 111.802 351.965 111.086C351.314 110.305 350.728 109.914 350.207 109.914C349.165 109.914 347.961 110.533 346.594 111.77C345.292 112.941 343.892 114.504 342.395 116.457C340.962 118.41 339.465 120.624 337.902 123.098C336.405 125.507 334.973 127.915 333.605 130.324C332.303 132.733 331.066 135.044 329.895 137.258C328.788 139.406 327.909 141.197 327.258 142.629C325.956 145.363 324.654 147.186 323.352 148.098C322.049 149.074 320.715 149.562 319.348 149.562C317.46 149.562 315.93 149.009 314.758 147.902C313.651 146.73 313.098 145.103 313.098 143.02C313.098 142.564 313.163 141.685 313.293 140.383C313.423 139.016 313.586 137.421 313.781 135.598C313.977 133.71 314.172 131.691 314.367 129.543C314.562 127.395 314.758 125.279 314.953 123.195C315.148 121.047 315.311 119.061 315.441 117.238C315.572 115.415 315.637 113.885 315.637 112.648C315.637 111.021 315.572 109.458 315.441 107.961C315.311 106.464 315.051 105.552 314.66 105.227C314.074 105.422 313.033 106.659 311.535 108.938C310.038 111.151 308.117 115.09 305.773 120.754C305.448 121.47 304.96 122.023 304.309 122.414C303.658 122.805 302.974 123 302.258 123C301.151 123 300.272 122.642 299.621 121.926C298.97 121.145 298.645 120.266 298.645 119.289C298.645 118.833 298.742 118.345 298.938 117.824C301.867 110.858 304.602 105.747 307.141 102.492C309.745 99.1719 312.316 97.5117 314.855 97.5117C316.353 97.5117 317.622 97.9023 318.664 98.6836C319.706 99.3997 320.52 100.376 321.105 101.613C321.757 102.85 322.212 104.217 322.473 105.715C322.798 107.212 322.961 108.742 322.961 110.305C322.961 111.477 322.863 113.299 322.668 115.773C322.538 118.247 322.342 120.917 322.082 123.781C321.822 126.581 321.561 129.38 321.301 132.18C321.105 134.979 320.91 137.323 320.715 139.211ZM409.777 139.211C410.819 137.062 412.023 134.719 413.391 132.18C414.758 129.576 416.223 126.971 417.785 124.367C419.348 121.698 420.975 119.061 422.668 116.457C424.426 113.853 426.249 111.379 428.137 109.035C430.025 106.757 431.913 105.129 433.801 104.152C435.754 103.111 437.577 102.59 439.27 102.59C442.655 102.59 445.161 103.827 446.789 106.301C448.417 108.775 449.23 111.835 449.23 115.48C449.23 116.327 449.165 117.368 449.035 118.605C448.97 119.777 448.872 121.047 448.742 122.414C448.677 123.781 448.579 125.181 448.449 126.613C448.384 127.98 448.352 129.283 448.352 130.52C448.352 132.082 448.417 133.579 448.547 135.012C448.742 136.444 449.068 137.714 449.523 138.82C449.979 139.862 450.63 140.708 451.477 141.359C452.323 141.945 453.43 142.238 454.797 142.238C457.271 142.238 459.68 141.294 462.023 139.406C464.367 137.453 466.516 135.174 468.469 132.57C470.487 129.901 472.212 127.199 473.645 124.465C475.142 121.73 476.249 119.517 476.965 117.824C477.29 117.108 477.746 116.555 478.332 116.164C478.983 115.773 479.667 115.578 480.383 115.578C481.49 115.578 482.368 116.001 483.02 116.848C483.736 117.629 484.094 118.475 484.094 119.387C484.094 119.842 483.996 120.298 483.801 120.754C483.54 121.275 483.02 122.349 482.238 123.977C481.457 125.604 480.415 127.492 479.113 129.641C477.876 131.724 476.411 133.97 474.719 136.379C473.026 138.723 471.138 140.871 469.055 142.824C467.036 144.777 464.823 146.405 462.414 147.707C460.07 149.009 457.596 149.66 454.992 149.66C452.062 149.66 449.686 149.107 447.863 148C446.04 146.828 444.608 145.331 443.566 143.508C442.525 141.62 441.809 139.569 441.418 137.355C441.092 135.077 440.93 132.798 440.93 130.52C440.93 129.543 440.962 128.436 441.027 127.199C441.158 125.962 441.288 124.66 441.418 123.293C441.613 121.926 441.743 120.559 441.809 119.191C441.939 117.824 442.004 116.522 442.004 115.285C442.004 113.202 441.678 111.802 441.027 111.086C440.376 110.305 439.79 109.914 439.27 109.914C438.228 109.914 437.023 110.533 435.656 111.77C434.354 112.941 432.954 114.504 431.457 116.457C430.025 118.41 428.527 120.624 426.965 123.098C425.467 125.507 424.035 127.915 422.668 130.324C421.366 132.733 420.129 135.044 418.957 137.258C417.85 139.406 416.971 141.197 416.32 142.629C415.018 145.363 413.716 147.186 412.414 148.098C411.112 149.074 409.777 149.562 408.41 149.562C406.522 149.562 404.992 149.009 403.82 147.902C402.714 146.73 402.16 145.103 402.16 143.02C402.16 142.564 402.225 141.685 402.355 140.383C402.486 139.016 402.648 137.421 402.844 135.598C403.039 133.71 403.234 131.691 403.43 129.543C403.625 127.395 403.82 125.279 404.016 123.195C404.211 121.047 404.374 119.061 404.504 117.238C404.634 115.415 404.699 113.885 404.699 112.648C404.699 111.021 404.634 109.458 404.504 107.961C404.374 106.464 404.113 105.552 403.723 105.227C403.137 105.422 402.095 106.659 400.598 108.938C399.1 111.151 397.18 115.09 394.836 120.754C394.51 121.47 394.022 122.023 393.371 122.414C392.72 122.805 392.036 123 391.32 123C390.214 123 389.335 122.642 388.684 121.926C388.033 121.145 387.707 120.266 387.707 119.289C387.707 118.833 387.805 118.345 388 117.824C390.93 110.858 393.664 105.747 396.203 102.492C398.807 99.1719 401.379 97.5117 403.918 97.5117C405.415 97.5117 406.685 97.9023 407.727 98.6836C408.768 99.3997 409.582 100.376 410.168 101.613C410.819 102.85 411.275 104.217 411.535 105.715C411.861 107.212 412.023 108.742 412.023 110.305C412.023 111.477 411.926 113.299 411.73 115.773C411.6 118.247 411.405 120.917 411.145 123.781C410.884 126.581 410.624 129.38 410.363 132.18C410.168 134.979 409.973 137.323 409.777 139.211ZM488.879 137.258C490.246 139.146 492.004 140.676 494.152 141.848C496.301 142.954 498.938 143.508 502.062 143.508C505.253 143.508 508.15 142.759 510.754 141.262C513.358 139.699 515.734 137.681 517.883 135.207C520.031 132.733 521.952 129.966 523.645 126.906C525.337 123.846 526.867 120.786 528.234 117.727C528.56 117.01 529.016 116.49 529.602 116.164C530.188 115.773 530.839 115.578 531.555 115.578C532.661 115.578 533.54 115.969 534.191 116.75C534.908 117.531 535.266 118.378 535.266 119.289C535.266 119.615 535.233 119.908 535.168 120.168C535.103 120.363 535.005 120.591 534.875 120.852C530.383 130.747 525.467 138.202 520.129 143.215C514.855 148.228 508.866 150.799 502.16 150.93C497.863 150.93 494.152 150.083 491.027 148.391C487.902 146.763 485.331 144.647 483.312 142.043C481.294 139.374 479.797 136.379 478.82 133.059C477.844 129.738 477.355 126.418 477.355 123.098C477.355 119.777 477.746 116.717 478.527 113.918C479.374 111.118 480.546 108.677 482.043 106.594C483.605 104.51 485.428 102.883 487.512 101.711C489.66 100.539 492.004 99.9531 494.543 99.9531C496.04 99.9531 497.505 100.279 498.938 100.93C500.435 101.516 501.77 102.395 502.941 103.566C504.113 104.673 505.057 106.04 505.773 107.668C506.49 109.296 506.848 111.151 506.848 113.234C506.848 115.904 506.392 118.41 505.48 120.754C504.569 123.098 503.299 125.279 501.672 127.297C500.109 129.315 498.221 131.171 496.008 132.863C493.794 134.556 491.418 136.021 488.879 137.258ZM485.949 130.91C487.967 130.064 489.79 128.99 491.418 127.688C493.111 126.385 494.543 124.953 495.715 123.391C496.887 121.828 497.798 120.201 498.449 118.508C499.1 116.75 499.426 114.992 499.426 113.234C499.426 111.281 498.938 109.816 497.961 108.84C496.984 107.798 495.845 107.277 494.543 107.277C492.785 107.277 491.288 107.766 490.051 108.742C488.814 109.719 487.805 110.988 487.023 112.551C486.242 114.113 485.656 115.871 485.266 117.824C484.94 119.712 484.777 121.6 484.777 123.488C484.777 124.66 484.875 125.897 485.07 127.199C485.331 128.501 485.624 129.738 485.949 130.91ZM538.586 107.863C538.326 109.621 538 111.281 537.609 112.844C537.219 114.341 536.828 115.676 536.438 116.848C536.112 117.954 535.819 118.866 535.559 119.582C535.298 120.298 535.135 120.689 535.07 120.754C534.419 122.251 533.28 123 531.652 123C530.741 123 529.895 122.674 529.113 122.023C528.332 121.307 527.941 120.428 527.941 119.387C527.941 118.996 528.007 118.703 528.137 118.508C528.267 118.312 528.462 117.922 528.723 117.336C528.983 116.75 529.309 115.773 529.699 114.406C530.09 113.039 530.578 110.923 531.164 108.059C530.057 108.059 528.918 108.026 527.746 107.961C526.574 107.896 525.5 107.668 524.523 107.277C523.482 106.887 522.635 106.268 521.984 105.422C521.333 104.576 521.008 103.404 521.008 101.906C521.008 100.799 521.333 99.3021 521.984 97.4141C522.57 95.526 523.384 93.6706 524.426 91.8477C525.467 90.0247 526.639 88.4622 527.941 87.1602C529.243 85.793 530.546 85.1094 531.848 85.1094C533.345 85.1094 534.549 85.6628 535.461 86.7695C536.438 87.8763 537.186 89.2435 537.707 90.8711C538.228 92.4336 538.586 94.0938 538.781 95.8516C539.042 97.6094 539.172 99.1393 539.172 100.441C540.279 100.441 541.353 100.441 542.395 100.441C543.501 100.376 544.543 100.344 545.52 100.344C549.23 100.344 552.062 101.158 554.016 102.785C555.969 104.413 556.945 107.082 556.945 110.793C556.945 112.29 556.848 113.853 556.652 115.48C556.457 117.108 556.229 118.801 555.969 120.559C555.708 122.251 555.48 123.944 555.285 125.637C555.09 127.329 554.992 128.99 554.992 130.617C554.992 132.961 555.318 134.914 555.969 136.477C556.62 137.974 557.434 139.178 558.41 140.09C559.387 141.001 560.428 141.652 561.535 142.043C562.642 142.368 563.651 142.531 564.562 142.531C567.362 142.531 569.999 141.62 572.473 139.797C574.947 137.974 577.225 135.793 579.309 133.254C581.392 130.65 583.247 127.915 584.875 125.051C586.568 122.186 587.967 119.68 589.074 117.531C589.4 116.945 589.855 116.49 590.441 116.164C591.027 115.839 591.646 115.676 592.297 115.676C593.469 115.676 594.38 116.066 595.031 116.848C595.682 117.564 596.008 118.378 596.008 119.289C596.008 119.94 595.878 120.526 595.617 121.047C594.12 123.716 592.362 126.743 590.344 130.129C588.391 133.449 586.145 136.574 583.605 139.504C581.066 142.434 578.202 144.908 575.012 146.926C571.887 148.944 568.436 149.953 564.66 149.953C562.316 149.953 560.103 149.497 558.02 148.586C555.936 147.74 554.113 146.503 552.551 144.875C551.053 143.182 549.849 141.132 548.938 138.723C548.026 136.249 547.57 133.482 547.57 130.422C547.57 127.167 547.896 123.944 548.547 120.754C549.198 117.499 549.523 114.406 549.523 111.477C549.523 110.24 549.23 109.328 548.645 108.742C548.124 108.091 546.919 107.766 545.031 107.766C544.12 107.766 543.111 107.766 542.004 107.766C540.962 107.766 539.823 107.798 538.586 107.863ZM532.043 100.637C532.043 100.181 532.01 99.5951 531.945 98.8789C531.945 98.0977 531.88 97.349 531.75 96.6328C531.685 95.9167 531.555 95.2982 531.359 94.7773C531.229 94.2565 531.066 93.9961 530.871 93.9961C530.676 93.9961 530.415 94.2565 530.09 94.7773C529.829 95.2331 529.536 95.819 529.211 96.5352C528.885 97.1862 528.592 97.9023 528.332 98.6836C528.072 99.4648 527.876 100.116 527.746 100.637H532.043Z" fill="#F6543B"/>
</svg>
